 <svg version="1.0" xmlns="http://www.w3.org/2000/svg" width="700.000000pt" height="700.000000pt" viewBox="0 0 700.000000 700.000000" preserveAspectRatio="xMidYMid meet">
<metadata>
Created by potrace 1.12, written by Peter Selinger 2001-2015
</metadata>
<g transform="translate(0.000000,700.000000) scale(0.100000,-0.100000)" fill="#000000" stroke="none">
<path d="M3473 6478 c-17 -20 -80 -122 -150 -248 -22 -38 -248 -430 -334 -577
-30 -51 -60 -93 -67 -93 -8 0 -103 50 -212 110 -108 61 -207 110 -218 110 -11
0 -24 -6 -30 -13 -8 -10 11 -164 73 -578 93 -618 142 -950 152 -1019 5 -40 4
-43 -9 -30 -14 14 -145 190 -458 614 -69 93 -142 191 -163 217 -37 49 -66 61
-84 37 -5 -7 -36 -105 -67 -218 -32 -113 -61 -208 -64 -212 -4 -3 -61 9 -127
27 -292 80 -816 215 -834 215 -45 0 -45 -22 -2 -182 22 -84 79 -297 126 -473
47 -176 85 -325 85 -332 0 -13 -7 -16 -238 -82 -96 -28 -180 -55 -188 -62 -33
-27 -13 -48 194 -201 272 -202 996 -737 1245 -919 75 -56 137 -108 137 -116 0
-13 -94 -242 -208 -508 -45 -106 -47 -112 -31 -131 17 -21 25 -20 554 41 656
75 875 98 879 94 2 -2 -2 -321 -9 -709 -10 -499 -11 -708 -3 -717 13 -16 233
-18 243 -3 4 6 1 326 -6 711 -7 384 -9 702 -6 705 7 7 164 -9 792 -81 264 -31
495 -54 514 -53 19 2 38 10 44 18 7 12 -21 89 -106 290 -63 151 -122 292 -131
313 l-15 38 112 82 c62 46 206 153 322 238 115 85 291 215 391 289 100 74 316
233 479 354 244 180 296 222 293 240 -4 28 -25 37 -243 99 -104 30 -191 59
-193 65 -3 9 54 233 152 597 94 347 98 365 86 380 -7 8 -21 15 -32 15 -16 0
-461 -115 -866 -224 -71 -19 -94 -22 -98 -12 -3 7 -31 104 -63 216 -34 118
-64 208 -73 214 -32 20 -17 38 -359 -424 -304 -411 -343 -462 -347 -452 -2 6
6 71 17 144 22 144 45 298 151 1008 72 482 72 490 28 490 -11 0 -110 -49 -218
-110 -109 -60 -204 -110 -212 -110 -7 0 -40 46 -73 103 -107 184 -225 389
-342 592 -107 186 -147 245 -163 245 -4 0 -16 -10 -27 -22z m122 -270 c49 -84
125 -216 170 -293 45 -77 122 -209 171 -294 49 -85 96 -158 105 -164 12 -7 61
16 208 97 106 59 195 105 198 102 4 -4 -19 -164 -123 -856 -13 -91 -30 -208
-38 -260 -7 -52 -30 -207 -51 -343 -39 -263 -39 -282 9 -275 21 3 58 51 541
701 104 141 193 253 197 249 3 -4 29 -88 57 -187 28 -99 58 -186 65 -194 15
-14 99 6 596 139 58 15 160 43 227 61 68 18 125 31 127 28 2 -2 -22 -103 -55
-224 -33 -121 -76 -281 -95 -355 -20 -74 -50 -184 -66 -244 -29 -105 -29 -109
-11 -126 10 -9 99 -40 197 -68 171 -50 195 -58 185 -65 -15 -12 -423 -312
-479 -352 -74 -54 -642 -473 -905 -668 -88 -66 -161 -125 -163 -133 -4 -14 20
-73 157 -398 44 -105 78 -192 76 -194 -5 -5 -173 12 -570 58 -714 83 -735 85
-749 69 -12 -12 -12 -120 0 -684 7 -369 13 -687 13 -707 l1 -38 -47 0 -48 0 3
177 c1 98 7 419 12 713 8 458 8 537 -4 549 -15 14 -118 4 -1254 -126 -78 -9
-144 -14 -147 -12 -2 3 48 128 112 279 63 151 117 286 120 300 4 27 35 2 -527
416 -80 59 -201 149 -270 200 -461 341 -727 537 -740 544 -8 5 -12 11 -9 15 4
3 87 29 185 57 99 28 187 58 197 67 19 19 35 -45 -188 786 -24 88 -41 162 -39
164 3 4 78 -15 642 -164 254 -67 295 -76 308 -64 7 8 37 95 65 194 28 99 54
183 57 187 6 6 315 -399 437 -572 11 -15 79 -107 150 -204 97 -132 135 -176
151 -176 43 0 47 20 29 142 -35 242 -85 576 -95 633 -26 151 -141 958 -137
962 3 2 92 -44 198 -103 147 -81 196 -104 208 -97 17 11 27 27 174 283 55 96
119 207 142 245 23 39 81 139 130 223 48 83 91 152 95 152 4 0 47 -69 95 -152z"></path>
</g>
</svg>