 <svg version="1.0" xmlns="http://www.w3.org/2000/svg" width="700.000000pt" height="525.000000pt" viewBox="0 0 700.000000 525.000000" preserveAspectRatio="xMidYMid meet">
<metadata>
Created by potrace 1.12, written by Peter Selinger 2001-2015
</metadata>
<g transform="translate(0.000000,525.000000) scale(0.100000,-0.100000)" fill="#000000" stroke="none">
<path d="M3533 3853 c-13 -9 -23 -22 -23 -29 0 -8 -12 -19 -27 -25 -23 -9 -30
-6 -54 21 -26 28 -59 40 -59 21 0 -5 20 -27 45 -50 43 -39 56 -61 36 -61 -5 0
-11 -6 -14 -14 -5 -11 3 -14 36 -13 42 2 42 2 41 -33 -1 -32 -3 -35 -27 -32
-28 3 -34 -11 -17 -38 8 -12 14 -10 40 15 37 35 38 58 4 102 l-26 34 25 23
c29 27 60 83 49 89 -4 3 -17 -2 -29 -10z"></path>
<path d="M3425 3670 c-8 -13 -1 -24 14 -19 6 3 7 10 2 18 -6 10 -10 10 -16 1z"></path>
<path d="M3460 3660 c0 -5 5 -10 10 -10 6 0 10 5 10 10 0 6 -4 10 -10 10 -5 0
-10 -4 -10 -10z"></path>
<path d="M3470 3525 c0 -14 5 -25 10 -25 6 0 10 11 10 25 0 14 -4 25 -10 25
-5 0 -10 -11 -10 -25z"></path>
<path d="M3714 3523 c-4 -10 -6 -24 -5 -31 1 -8 -3 -19 -8 -26 -8 -10 -7 -21
4 -42 20 -39 19 -54 -5 -54 -11 0 -20 -6 -20 -14 0 -9 10 -13 33 -11 l32 2 3
62 c2 48 0 63 -13 67 -19 8 -20 33 0 40 8 4 12 10 9 15 -8 14 -21 11 -30 -8z"></path>
<path d="M2951 3415 l-1 -65 36 4 c41 5 65 22 49 34 -6 4 -15 21 -21 37 -7 22
-16 30 -32 29 -15 0 -21 4 -18 13 3 7 2 13 -3 13 -5 0 -9 -29 -10 -65z"></path>
<path d="M3320 3467 c0 -7 6 -19 13 -26 10 -10 9 -15 -5 -25 -30 -22 -17 -106
15 -106 8 0 13 26 14 85 1 78 0 85 -18 85 -10 0 -19 -6 -19 -13z"></path>
<path d="M4068 3457 c-32 -26 -35 -48 -12 -68 14 -12 14 -14 -3 -26 -15 -11
-15 -15 -4 -22 10 -7 12 -22 8 -60 -6 -49 -5 -51 18 -51 26 0 33 18 14 37 -9
9 -9 24 0 59 11 43 10 49 -9 69 -24 26 -18 59 10 50 12 -4 19 1 23 15 7 26
-11 25 -45 -3z"></path>
<path d="M3478 3458 c17 -17 16 -88 -2 -88 -20 0 -39 27 -32 46 5 14 4 15 -9
4 -8 -7 -15 -18 -15 -25 0 -7 -7 -26 -15 -41 -8 -16 -15 -36 -15 -44 0 -9 -5
-21 -12 -28 -6 -6 -11 -32 -11 -57 0 -37 -4 -45 -18 -45 -16 0 -17 4 -8 23 7
16 7 31 0 50 -9 24 -16 28 -43 25 -30 -3 -33 -7 -40 -43 -4 -27 -1 -57 9 -90
9 -27 17 -72 17 -98 0 -37 3 -47 15 -45 8 2 18 14 22 28 7 24 7 24 8 3 1 -25
35 -33 44 -10 4 9 7 9 15 -1 12 -17 82 -28 82 -13 0 6 -9 11 -19 11 -11 0 -23
5 -26 10 -3 6 -1 10 4 10 6 0 11 6 11 14 0 11 7 12 28 7 20 -6 27 -14 27 -32
0 -17 6 -24 20 -24 15 0 19 6 17 23 -2 15 2 22 13 22 11 0 15 -7 13 -22 -3
-22 -1 -23 96 -25 l99 -1 -6 51 c-3 29 -2 43 2 33 13 -35 24 1 29 99 3 64 1
94 -7 99 -16 10 -71 -3 -71 -17 0 -7 -14 -24 -32 -40 -19 -16 -25 -24 -14 -20
17 6 18 3 13 -27 -4 -18 -7 -39 -7 -46 0 -24 -18 -15 -28 14 -7 17 -11 21 -11
10 -1 -10 -5 -18 -10 -18 -5 0 -12 -11 -15 -25 -7 -27 -40 -50 -57 -39 -6 4
-9 37 -7 85 3 73 1 79 -16 79 -17 0 -15 5 13 34 19 19 30 39 26 46 -5 8 -11 7
-22 -2 -14 -12 -15 -9 -10 25 21 114 21 107 -1 107 -12 0 -24 5 -27 10 -3 6
-11 10 -18 10 -8 0 -8 -3 1 -12z m-18 -144 c0 -8 4 -14 9 -14 14 0 23 -33 10
-40 -8 -6 -8 -13 0 -29 9 -17 9 -21 -2 -21 -8 0 -21 -8 -28 -17 -12 -16 -12
-17 2 -6 28 23 51 -5 47 -57 -2 -37 -7 -46 -24 -48 -11 -2 -27 4 -34 13 -16
19 -22 105 -8 105 5 0 7 4 3 10 -3 5 -12 7 -20 3 -12 -4 -15 3 -15 30 0 20 5
39 10 42 6 3 10 16 10 29 0 12 3 26 7 29 9 9 33 -12 33 -29z m-130 -68 c0 -3
-4 -8 -10 -11 -5 -3 -10 -1 -10 4 0 6 5 11 10 11 6 0 10 -2 10 -4z m30 -121
c0 -14 -4 -25 -10 -25 -5 0 -10 11 -10 25 0 14 5 25 10 25 6 0 10 -11 10 -25z
m258 -60 c-1 -25 -5 -45 -9 -45 -4 0 -7 20 -7 45 0 25 4 45 9 45 5 0 8 -20 7
-45z m-248 -1 c0 -14 -12 -19 -23 -8 -9 9 4 35 14 28 5 -3 9 -12 9 -20z"></path>
<path d="M3585 3338 c-4 -18 -14 -43 -22 -56 -22 -35 -13 -64 20 -68 20 -2 27
1 24 10 -3 7 3 20 13 28 16 14 16 21 5 64 -14 58 -31 67 -40 22z"></path>
<path d="M4010 3339 c-13 -24 -4 -41 10 -19 10 16 13 40 5 40 -2 0 -9 -9 -15
-21z"></path>
<path d="M3000 3310 c-12 -23 -5 -26 16 -6 8 8 23 12 35 9 15 -4 20 -3 15 5
-12 19 -54 14 -66 -8z"></path>
<path d="M2976 3243 c-2 -2 0 -19 5 -36 12 -43 12 -47 -6 -47 -8 0 -15 -7 -15
-15 0 -9 6 -12 16 -8 10 4 17 -2 21 -17 4 -15 11 -20 25 -17 12 3 22 -2 30
-16 11 -21 11 -21 19 -2 9 23 12 8 9 -37 -2 -37 8 -52 25 -38 10 8 19 8 35 0
15 -8 21 -8 24 2 2 7 8 29 15 49 13 41 5 99 -14 99 -8 0 -11 8 -8 21 5 18 3
20 -17 14 -20 -6 -22 -5 -18 19 3 15 1 29 -3 32 -16 9 -48 -6 -54 -27 -8 -24
-31 -25 -38 -1 -4 18 -40 35 -51 25z m44 -27 c0 -3 -4 -8 -10 -11 -5 -3 -10
-1 -10 4 0 6 5 11 10 11 6 0 10 -2 10 -4z"></path>
<path d="M3940 3240 c0 -5 5 -10 11 -10 5 0 7 5 4 10 -3 6 -8 10 -11 10 -2 0
-4 -4 -4 -10z"></path>
<path d="M3985 3230 c5 -15 0 -22 -19 -30 -14 -5 -28 -20 -31 -33 -4 -15 -13
-23 -27 -23 -16 1 -21 -7 -25 -34 -10 -76 -4 -110 21 -110 9 0 13 10 12 31 -2
45 21 48 39 5 22 -51 50 -49 51 4 2 49 13 63 71 91 44 21 45 23 23 31 -18 7
-21 11 -12 20 23 23 12 31 -11 10 -30 -28 -35 -28 -29 3 3 20 1 24 -11 19 -10
-3 -21 2 -29 15 -16 27 -31 27 -23 1z m-8 -78 c-14 -17 -22 0 -12 26 5 14 7
14 15 2 5 -9 4 -20 -3 -28z m-47 -26 c0 -11 -19 -15 -25 -6 -3 5 1 10 9 10 9
0 16 -2 16 -4z m56 -29 c-3 -12 -5 -24 -5 -26 -1 -3 -6 0 -13 7 -8 8 -8 15 0
25 7 8 8 18 4 22 -4 5 -1 5 5 1 7 -4 11 -17 9 -29z"></path>
<path d="M3568 3185 c13 -9 26 -14 29 -11 8 8 3 12 -27 21 l-25 7 23 -17z"></path>
<path d="M2956 3038 c8 -28 12 -33 20 -25 9 8 -6 47 -17 47 -6 0 -7 -10 -3
-22z"></path>
<path d="M3787 3024 c-13 -13 -7 -24 14 -24 11 0 19 5 17 12 -5 14 -22 21 -31
12z"></path>
<path d="M2784 2985 c-7 -17 4 -37 17 -30 12 8 12 45 -1 45 -6 0 -13 -7 -16
-15z"></path>
<path d="M3000 2960 c0 -6 32 -10 75 -10 43 0 75 4 75 10 0 6 -32 10 -75 10
-43 0 -75 -4 -75 -10z"></path>
<path d="M3180 2960 c0 -5 11 -10 25 -10 14 0 25 5 25 10 0 6 -11 10 -25 10
-14 0 -25 -4 -25 -10z"></path>
<path d="M3250 2960 c0 -6 102 -10 285 -10 183 0 285 4 285 10 0 6 -102 10
-285 10 -183 0 -285 -4 -285 -10z"></path>
<path d="M3850 2960 c0 -6 73 -10 200 -10 127 0 200 4 200 10 0 6 -73 10 -200
10 -127 0 -200 -4 -200 -10z"></path>
<path d="M4305 2918 c-12 -18 -17 -20 -24 -9 -10 16 -117 25 -126 11 -4 -6 5
-10 19 -10 14 0 26 -5 26 -10 0 -16 -33 -26 -38 -12 -5 15 -104 16 -119 1 -6
-6 -21 -9 -34 -7 l-24 4 27 14 c37 18 26 30 -27 30 -51 0 -67 -16 -30 -30 14
-5 23 -14 20 -20 -9 -15 -35 -12 -41 5 -8 20 -121 20 -148 0 -24 -18 -39 -9
-26 16 10 17 7 19 -27 18 -29 -1 -33 -3 -16 -7 16 -5 20 -11 13 -21 -7 -12
-13 -13 -35 -3 -14 7 -48 12 -76 12 -28 0 -48 4 -45 9 10 15 -19 20 -75 11
-48 -7 -49 -8 -16 -9 34 -1 37 -3 23 -16 -17 -17 -36 -20 -36 -5 0 6 -25 10
-55 10 -30 0 -55 5 -55 10 0 6 -5 10 -11 10 -5 0 -8 -4 -5 -9 3 -5 -1 -15 -10
-22 -12 -10 -20 -10 -34 -1 -12 7 -21 8 -25 2 -10 -16 -34 -12 -65 11 -28 21
-40 22 -266 23 l-238 0 1 -59 c2 -85 1 -83 23 -90 11 -4 18 -11 15 -16 -4 -5
-2 -9 4 -9 15 0 24 38 16 76 -6 35 2 43 23 22 10 -10 17 -10 31 -1 13 8 22 8
29 1 7 -7 17 -6 32 2 15 8 44 10 84 6 34 -3 81 -5 106 -5 25 1 74 1 110 1 36
-1 90 -1 120 -1 30 -1 79 -1 109 -2 59 0 75 -5 66 -20 -4 -5 5 -9 19 -9 14 0
25 5 24 11 -5 18 18 21 35 4 17 -17 32 -20 22 -5 -3 5 6 12 20 16 36 9 128 -1
133 -15 2 -6 8 -11 13 -11 6 0 7 5 4 10 -3 6 1 10 9 10 9 0 16 -4 16 -10 0
-15 27 -12 33 4 4 10 42 13 179 13 97 0 178 -4 185 -9 7 -6 20 -7 29 -4 8 3
26 3 40 0 21 -5 24 -12 24 -50 0 -42 11 -56 26 -33 3 6 16 8 28 5 17 -4 31 3
51 24 l29 30 -31 0 c-36 0 -43 17 -36 84 6 51 1 56 -22 24z m-1497 -20 c-7
-19 -35 -21 -41 -3 -5 11 0 15 19 15 16 0 24 -5 22 -12z m60 -4 c-9 -9 -21
-13 -27 -10 -20 13 -11 26 16 26 25 0 26 -1 11 -16z m170 4 c-3 -7 -13 -13
-23 -13 -10 0 -20 6 -22 13 -3 7 5 12 22 12 17 0 25 -5 23 -12z m60 -4 c-9 -9
-21 -13 -27 -9 -16 10 -3 25 22 25 20 0 20 -1 5 -16z m1166 1 c-4 -8 -15 -15
-25 -15 -10 0 -19 7 -19 15 0 9 9 15 25 15 18 0 23 -4 19 -15z m-700 -4 c7
-11 -14 -20 -31 -13 -7 2 -10 8 -7 13 7 12 31 12 38 0z m716 -41 c0 -5 -5 -10
-11 -10 -5 0 -7 5 -4 10 3 6 8 10 11 10 2 0 4 -4 4 -10z"></path>
<path d="M3273 2913 c9 -2 23 -2 30 0 6 3 -1 5 -18 5 -16 0 -22 -2 -12 -5z"></path>
<path d="M896 2831 c-4 -5 7 -29 23 -54 25 -37 35 -44 63 -44 18 0 38 3 43 8
6 4 17 4 25 -1 8 -5 22 -4 33 2 12 6 43 8 76 4 31 -4 75 -6 99 -6 59 2 201 3
335 2 34 -1 85 -1 112 -1 130 1 166 1 180 0 15 -1 55 -2 78 -1 6 0 33 3 60 6
30 4 53 2 62 -6 20 -17 42 6 48 52 4 35 4 36 -29 35 -21 -1 -29 -4 -21 -9 6
-4 -21 -8 -60 -8 -40 0 -72 -3 -72 -7 3 -21 -2 -33 -16 -33 -14 0 -19 12 -16
33 0 4 -6 7 -15 7 -8 0 -13 -4 -10 -8 2 -4 1 -14 -4 -21 -11 -19 -44 -5 -36
14 5 15 -23 18 -174 18 -162 0 -178 -2 -173 -23 4 -15 0 -20 -16 -20 -19 0
-26 10 -22 33 0 4 -6 7 -15 7 -8 0 -13 -4 -10 -8 2 -4 1 -14 -4 -22 -7 -12
-13 -13 -27 -3 -10 6 -17 16 -15 22 1 7 -20 11 -58 11 -33 0 -59 -3 -59 -7 4
-23 -3 -33 -21 -33 -18 0 -25 10 -21 33 3 17 -17 5 -22 -13 -9 -34 -44 -23
-38 13 0 4 -26 7 -59 7 -33 0 -59 -3 -59 -7 4 -23 -3 -33 -21 -33 -18 0 -25
10 -21 33 0 4 -6 7 -14 7 -9 0 -12 -6 -9 -15 8 -19 -25 -33 -36 -14 -5 7 -6
17 -4 21 3 4 -3 8 -13 9 -16 0 -16 1 2 9 16 7 17 9 3 9 -9 1 -23 4 -31 7 -8 3
-18 1 -21 -5z m451 -37 c-3 -3 -12 -4 -19 -1 -8 3 -5 6 6 6 11 1 17 -2 13 -5z
m323 -9 c0 -8 -9 -15 -19 -15 -10 0 -21 7 -25 15 -4 11 1 15 19 15 16 0 25 -6
25 -15z m60 2 c0 -19 -10 -27 -26 -20 -21 8 -17 33 6 33 11 0 20 -6 20 -13z
m370 3 c0 -5 -7 -7 -15 -4 -8 4 -15 8 -15 10 0 2 7 4 15 4 8 0 15 -4 15 -10z"></path>
<path d="M1353 2823 c9 -2 23 -2 30 0 6 3 -1 5 -18 5 -16 0 -22 -2 -12 -5z"></path>
<path d="M1468 2823 c12 -2 30 -2 40 0 9 3 -1 5 -23 4 -22 0 -30 -2 -17 -4z"></path>
<path d="M2900 2820 c0 -5 18 -10 40 -10 22 0 40 5 40 10 0 6 -18 10 -40 10
-22 0 -40 -4 -40 -10z"></path>
<path d="M3275 2820 c3 -5 10 -10 16 -10 5 0 9 5 9 10 0 6 -7 10 -16 10 -8 0
-12 -4 -9 -10z"></path>
<path d="M4408 2823 c12 -2 30 -2 40 0 9 3 -1 5 -23 4 -22 0 -30 -2 -17 -4z"></path>
<path d="M4600 2821 c8 -6 11 -11 5 -12 -5 -1 4 -5 20 -9 29 -7 29 -8 8 -15
-13 -4 -23 -13 -23 -20 0 -25 12 -45 27 -45 8 0 12 4 9 9 -11 17 22 19 45 4
12 -9 19 -12 16 -6 -4 6 0 14 9 17 23 9 102 7 108 -2 5 -8 48 -7 155 5 37 3
56 1 61 -7 12 -19 97 -22 104 -3 6 15 12 15 146 0 14 -1 31 -6 38 -11 8 -5 20
-2 31 8 19 17 111 23 111 7 0 -5 25 -9 55 -9 30 0 55 5 55 9 0 15 96 10 109
-5 14 -16 66 -14 144 5 36 10 52 10 70 0 12 -6 33 -11 47 -10 14 0 34 -2 45
-5 16 -5 26 2 47 36 15 24 26 47 25 52 -3 13 -174 19 -195 7 -10 -7 -12 -11
-4 -11 24 0 1 -20 -23 -20 -13 0 -27 5 -30 10 -3 6 -1 10 4 10 6 0 11 5 11 11
0 15 -113 6 -118 -9 -2 -8 -28 -12 -68 -12 -36 0 -63 -4 -60 -8 2 -4 -4 -13
-14 -20 -23 -14 -37 2 -20 23 6 7 7 16 3 18 -15 9 -167 -24 -185 -40 -19 -17
-52 -10 -46 10 3 6 14 13 26 15 29 4 28 18 0 26 -27 7 -108 7 -90 -1 6 -2 10
-8 7 -13 -3 -5 4 -11 15 -15 22 -7 26 -20 8 -31 -6 -4 -16 0 -23 9 -15 21 -95
23 -125 5 -17 -11 -22 -10 -30 2 -7 12 -3 16 18 20 35 7 17 17 -28 15 -19 -1
-67 -3 -106 -3 -62 -2 -72 -4 -70 -19 0 -12 -7 -19 -21 -21 -13 -2 -23 2 -23
9 0 9 -4 8 -15 -1 -19 -16 -49 -5 -41 15 4 12 -7 15 -67 17 -100 2 -118 3
-147 12 -19 5 -21 5 -10 -3z m1424 -19 c-6 -4 -13 -15 -17 -24 -7 -20 -22 -23
-32 -7 -8 12 23 38 45 39 9 0 11 -3 4 -8z m-1320 -17 c-7 -16 -30 -20 -38 -6
-7 11 4 21 25 21 12 0 16 -5 13 -15z m384 3 c-7 -19 -35 -21 -41 -3 -5 11 0
15 19 15 16 0 24 -5 22 -12z m425 -13 c1 -5 -6 -11 -15 -13 -11 -2 -18 3 -18
13 0 17 30 18 33 0z m225 3 c-7 -19 -35 -21 -41 -3 -5 11 0 15 19 15 16 0 24
-5 22 -12z m62 -3 c-7 -8 -23 -15 -36 -15 -17 0 -22 4 -18 15 4 9 19 15 36 15
26 0 29 -2 18 -15z m158 3 c-3 -7 -13 -13 -23 -13 -10 0 -20 6 -22 13 -3 7 5
12 22 12 17 0 25 -5 23 -12z"></path>
<path d="M2364 2812 c-6 -4 -13 -15 -17 -24 -3 -10 -13 -18 -22 -18 -24 0 -17
-30 8 -31 28 -2 61 2 66 7 2 2 -2 11 -9 19 -10 12 -10 19 -2 27 23 23 4 39
-24 20z"></path>
<path d="M5593 2813 c9 -2 23 -2 30 0 6 3 -1 5 -18 5 -16 0 -22 -2 -12 -5z"></path>
<path d="M5658 2813 c7 -3 16 -2 19 1 4 3 -2 6 -13 5 -11 0 -14 -3 -6 -6z"></path>
<path d="M2208 2803 c17 -2 47 -2 65 0 17 2 3 4 -33 4 -36 0 -50 -2 -32 -4z"></path>
<path d="M2440 2795 c-21 -26 -4 -45 40 -45 27 0 43 5 46 15 9 22 -14 45 -46
45 -15 0 -33 -7 -40 -15z"></path>
<path d="M3110 2790 c0 -11 5 -20 10 -20 6 0 10 9 10 20 0 11 -4 20 -10 20 -5
0 -10 -9 -10 -20z"></path>
<path d="M4428 2780 l-5 -30 69 0 c51 0 68 3 68 14 0 8 -7 17 -16 20 -8 3 -12
10 -9 16 4 6 -5 10 -19 10 -16 0 -26 -6 -26 -14 0 -19 -26 -27 -39 -12 -6 7
-8 16 -4 19 3 4 2 7 -4 7 -6 0 -13 -13 -15 -30z"></path>
<path d="M4868 2803 c7 -3 16 -2 19 1 4 3 -2 6 -13 5 -11 0 -14 -3 -6 -6z"></path>
<path d="M2178 2769 c-27 -28 -23 -32 30 -25 67 10 79 14 79 31 0 23 -87 19
-109 -6z"></path>
<path d="M2576 2774 c-8 -20 0 -32 14 -18 5 5 5 15 1 22 -6 11 -10 10 -15 -4z"></path>
<path d="M3170 2780 c0 -5 5 -10 10 -10 6 0 10 5 10 10 0 6 -4 10 -10 10 -5 0
-10 -4 -10 -10z"></path>
<path d="M3950 2760 c-8 -5 -12 -11 -9 -14 2 -3 11 -1 19 4 8 5 12 11 9 14 -2
3 -11 1 -19 -4z"></path>
<path d="M3220 2744 c0 -8 5 -12 10 -9 6 3 10 10 10 16 0 5 -4 9 -10 9 -5 0
-10 -7 -10 -16z"></path>
<path d="M3498 2743 c6 -2 18 -2 25 0 6 3 1 5 -13 5 -14 0 -19 -2 -12 -5z"></path>
<path d="M2910 2731 c0 -5 3 -17 6 -26 5 -13 8 -14 15 -3 13 20 11 38 -6 38
-8 0 -15 -4 -15 -9z"></path>
<path d="M4120 2724 c0 -8 5 -12 10 -9 6 4 8 11 5 16 -9 14 -15 11 -15 -7z"></path>
<path d="M3310 2721 c0 -6 -9 -11 -20 -11 -11 0 -20 -4 -20 -10 0 -13 27 -13
35 0 3 5 13 6 22 3 10 -4 14 -2 11 7 -5 17 -28 26 -28 11z"></path>
<path d="M3426 2721 c-4 -7 -5 -15 -2 -18 9 -9 19 4 14 18 -4 11 -6 11 -12 0z"></path>
<path d="M4259 2720 c-13 -9 13 -20 47 -20 14 0 23 -5 22 -12 -2 -8 9 -14 25
-16 15 -2 27 1 27 7 0 6 -7 11 -15 11 -8 0 -14 5 -12 12 2 14 -76 28 -94 18z"></path>
<path d="M3120 2697 c-19 -15 -24 -37 -7 -37 15 0 40 37 29 44 -4 2 -14 -1
-22 -7z"></path>
<path d="M3995 2690 c3 -5 10 -10 16 -10 5 0 9 5 9 10 0 6 -7 10 -16 10 -8 0
-12 -4 -9 -10z"></path>
<path d="M2320 2680 c0 -5 5 -10 10 -10 6 0 10 5 10 10 0 6 -4 10 -10 10 -5 0
-10 -4 -10 -10z"></path>
<path d="M2370 2680 c0 -5 5 -10 10 -10 6 0 10 5 10 10 0 6 -4 10 -10 10 -5 0
-10 -4 -10 -10z"></path>
<path d="M2440 2680 c0 -5 11 -10 25 -10 14 0 25 5 25 10 0 6 -11 10 -25 10
-14 0 -25 -4 -25 -10z"></path>
<path d="M5986 2633 c7 -51 11 -60 20 -51 9 9 -7 98 -18 98 -5 0 -6 -19 -2
-47z"></path>
<path d="M3240 2651 c0 -5 5 -13 10 -16 6 -3 10 -2 10 4 0 5 -4 13 -10 16 -5
3 -10 2 -10 -4z"></path>
<path d="M3817 2642 c-13 -14 -15 -22 -7 -27 16 -10 33 9 28 30 -3 16 -5 15
-21 -3z"></path>
<path d="M4423 2653 c-16 -6 -17 -53 -2 -53 6 0 8 9 4 20 -5 14 -2 20 9 20 9
0 16 5 16 10 0 11 -7 12 -27 3z"></path>
<path d="M3077 2643 c-4 -3 -7 -18 -6 -32 1 -26 1 -25 10 3 9 31 7 41 -4 29z"></path>
<path d="M4336 2643 c-9 -10 -7 -43 3 -43 11 0 21 39 11 45 -4 2 -10 2 -14 -2z"></path>
<path d="M4680 2625 c0 -23 4 -25 45 -25 25 0 45 5 45 10 0 6 -13 10 -30 10
-20 0 -30 5 -30 15 0 8 -7 15 -15 15 -9 0 -15 -9 -15 -25z"></path>
<path d="M3000 2630 c0 -5 5 -10 11 -10 5 0 7 5 4 10 -3 6 -8 10 -11 10 -2 0
-4 -4 -4 -10z"></path>
<path d="M3160 2630 c0 -5 5 -10 11 -10 5 0 7 5 4 10 -3 6 -8 10 -11 10 -2 0
-4 -4 -4 -10z"></path>
<path d="M1705 2620 c-3 -5 1 -10 9 -10 9 0 16 5 16 10 0 6 -4 10 -9 10 -6 0
-13 -4 -16 -10z"></path>
<path d="M1760 2620 c0 -5 5 -10 10 -10 6 0 10 5 10 10 0 6 -4 10 -10 10 -5 0
-10 -4 -10 -10z"></path>
<path d="M3652 2615 c-10 -12 -10 -15 2 -15 7 0 16 7 20 15 7 19 -5 19 -22 0z"></path>
<path d="M3945 2620 c-3 -5 1 -10 9 -10 9 0 16 5 16 10 0 6 -4 10 -9 10 -6 0
-13 -4 -16 -10z"></path>
<path d="M4050 2615 c-7 -9 -8 -15 -2 -15 5 0 12 7 16 15 3 8 4 15 2 15 -2 0
-9 -7 -16 -15z"></path>
<path d="M4132 2618 c-16 -16 -15 -28 3 -28 8 0 15 9 15 20 0 23 -2 24 -18 8z"></path>
<path d="M960 2605 c0 -8 5 -15 10 -15 6 0 10 7 10 15 0 8 -4 15 -10 15 -5 0
-10 -7 -10 -15z"></path>
<path d="M1650 2610 c0 -5 7 -10 15 -10 8 0 15 5 15 10 0 6 -7 10 -15 10 -8 0
-15 -4 -15 -10z"></path>
<path d="M1820 2610 c0 -5 5 -10 10 -10 6 0 10 5 10 10 0 6 -4 10 -10 10 -5 0
-10 -4 -10 -10z"></path>
<path d="M2070 2610 c0 -5 5 -10 10 -10 6 0 10 5 10 10 0 6 -4 10 -10 10 -5 0
-10 -4 -10 -10z"></path>
<path d="M2510 2610 c0 -5 5 -10 10 -10 6 0 10 5 10 10 0 6 -4 10 -10 10 -5 0
-10 -4 -10 -10z"></path>
<path d="M2740 2610 c0 -5 5 -10 10 -10 6 0 10 5 10 10 0 6 -4 10 -10 10 -5 0
-10 -4 -10 -10z"></path>
<path d="M3740 2610 c0 -5 5 -10 10 -10 6 0 10 5 10 10 0 6 -4 10 -10 10 -5 0
-10 -4 -10 -10z"></path>
<path d="M4530 2610 c0 -5 5 -10 10 -10 6 0 10 5 10 10 0 6 -4 10 -10 10 -5 0
-10 -4 -10 -10z"></path>
<path d="M5220 2610 c0 -5 20 -10 45 -10 25 0 45 5 45 10 0 6 -20 10 -45 10
-25 0 -45 -4 -45 -10z"></path>
<path d="M3560 2600 c0 -5 5 -10 10 -10 6 0 10 5 10 10 0 6 -4 10 -10 10 -5 0
-10 -4 -10 -10z"></path>
<path d="M3030 2590 c0 -13 18 -22 24 -11 3 5 -1 11 -9 15 -8 3 -15 1 -15 -4z"></path>
<path d="M4330 2570 c0 -11 -7 -20 -15 -20 -8 0 -15 -4 -15 -10 0 -5 23 -10
50 -10 28 0 50 2 50 5 0 8 -53 54 -62 55 -5 0 -8 -9 -8 -20z"></path>
<path d="M2721 2561 c-7 -13 -8 -22 -1 -26 14 -9 29 2 26 20 -4 25 -14 28 -25
6z"></path>
<path d="M5360 2570 c0 -5 7 -10 15 -10 8 0 15 5 15 10 0 6 -7 10 -15 10 -8 0
-15 -4 -15 -10z"></path>
<path d="M5420 2570 c0 -5 5 -10 10 -10 6 0 10 5 10 10 0 6 -4 10 -10 10 -5 0
-10 -4 -10 -10z"></path>
<path d="M960 2540 c0 -6 27 -10 60 -10 33 0 60 4 60 10 0 6 -27 10 -60 10
-33 0 -60 -4 -60 -10z"></path>
<path d="M1320 2540 c0 -5 5 -10 10 -10 6 0 10 5 10 10 0 6 -4 10 -10 10 -5 0
-10 -4 -10 -10z"></path>
<path d="M1420 2540 c0 -5 20 -10 45 -10 25 0 45 5 45 10 0 6 -20 10 -45 10
-25 0 -45 -4 -45 -10z"></path>
<path d="M1530 2540 c0 -5 23 -10 50 -10 28 0 50 5 50 10 0 6 -22 10 -50 10
-27 0 -50 -4 -50 -10z"></path>
<path d="M1720 2540 c0 -5 18 -10 40 -10 22 0 40 5 40 10 0 6 -18 10 -40 10
-22 0 -40 -4 -40 -10z"></path>
<path d="M1880 2540 c0 -5 5 -10 10 -10 6 0 10 5 10 10 0 6 -4 10 -10 10 -5 0
-10 -4 -10 -10z"></path>
<path d="M1960 2540 c0 -5 5 -10 10 -10 6 0 10 5 10 10 0 6 -4 10 -10 10 -5 0
-10 -4 -10 -10z"></path>
<path d="M2080 2540 c0 -5 7 -10 15 -10 8 0 15 5 15 10 0 6 -7 10 -15 10 -8 0
-15 -4 -15 -10z"></path>
<path d="M2310 2540 c0 -5 18 -10 40 -10 22 0 40 5 40 10 0 6 -18 10 -40 10
-22 0 -40 -4 -40 -10z"></path>
<path d="M2440 2540 c0 -5 16 -10 35 -10 19 0 35 5 35 10 0 6 -16 10 -35 10
-19 0 -35 -4 -35 -10z"></path>
<path d="M4900 2540 c0 -5 7 -10 15 -10 8 0 15 5 15 10 0 6 -7 10 -15 10 -8 0
-15 -4 -15 -10z"></path>
<path d="M5170 2540 c0 -5 9 -10 20 -10 11 0 20 5 20 10 0 6 -9 10 -20 10 -11
0 -20 -4 -20 -10z"></path>
<path d="M5630 2540 c0 -5 16 -10 35 -10 19 0 35 5 35 10 0 6 -16 10 -35 10
-19 0 -35 -4 -35 -10z"></path>
<path d="M5770 2540 c0 -5 5 -10 10 -10 6 0 10 5 10 10 0 6 -4 10 -10 10 -5 0
-10 -4 -10 -10z"></path>
<path d="M5830 2540 c0 -5 7 -10 15 -10 8 0 15 5 15 10 0 6 -7 10 -15 10 -8 0
-15 -4 -15 -10z"></path>
<path d="M5920 2540 c0 -5 5 -10 10 -10 6 0 10 5 10 10 0 6 -4 10 -10 10 -5 0
-10 -4 -10 -10z"></path>
<path d="M6000 2540 c0 -5 5 -10 10 -10 6 0 10 5 10 10 0 6 -4 10 -10 10 -5 0
-10 -4 -10 -10z"></path>
<path d="M850 2530 c0 -5 5 -10 10 -10 6 0 10 5 10 10 0 6 -4 10 -10 10 -5 0
-10 -4 -10 -10z"></path>
<path d="M3070 2506 c0 -13 13 -16 68 -17 37 -1 100 -3 140 -4 39 -1 72 1 72
6 0 10 -9 12 -105 14 -38 1 -94 5 -122 9 -45 7 -53 5 -53 -8z"></path>
<path d="M900 2499 c0 -15 36 -19 176 -19 89 0 144 4 144 10 0 6 -48 10 -122
11 -68 1 -140 2 -160 3 -21 2 -38 -1 -38 -5z"></path>
<path d="M1260 2501 c0 -6 6 -11 13 -12 65 -6 77 -6 77 2 0 5 -13 9 -29 9 -16
0 -36 3 -45 6 -9 3 -16 1 -16 -5z"></path>
<path d="M1500 2500 c0 -5 5 -10 10 -10 6 0 10 5 10 10 0 6 -4 10 -10 10 -5 0
-10 -4 -10 -10z"></path>
<path d="M1585 2501 c-26 -4 -36 -9 -27 -14 16 -11 92 1 92 14 0 10 -3 10 -65
0z"></path>
<path d="M1680 2500 c0 -5 5 -10 10 -10 6 0 10 5 10 10 0 6 -4 10 -10 10 -5 0
-10 -4 -10 -10z"></path>
<path d="M1810 2500 c0 -5 5 -10 10 -10 6 0 10 5 10 10 0 6 -4 10 -10 10 -5 0
-10 -4 -10 -10z"></path>
<path d="M1860 2500 c0 -5 5 -10 10 -10 6 0 10 5 10 10 0 6 -4 10 -10 10 -5 0
-10 -4 -10 -10z"></path>
<path d="M1900 2500 c0 -5 11 -10 25 -10 14 0 25 5 25 10 0 6 -11 10 -25 10
-14 0 -25 -4 -25 -10z"></path>
<path d="M2050 2500 c0 -5 20 -10 45 -10 25 0 45 5 45 10 0 6 -20 10 -45 10
-25 0 -45 -4 -45 -10z"></path>
<path d="M2330 2500 c0 -5 9 -10 20 -10 11 0 20 5 20 10 0 6 -9 10 -20 10 -11
0 -20 -4 -20 -10z"></path>
<path d="M2430 2500 c0 -5 9 -10 20 -10 11 0 20 5 20 10 0 6 -9 10 -20 10 -11
0 -20 -4 -20 -10z"></path>
<path d="M2700 2502 c0 -11 69 -26 78 -18 8 9 1 13 -40 20 -22 4 -38 3 -38 -2z"></path>
<path d="M2910 2500 c-8 -5 -11 -12 -8 -16 10 -9 58 4 58 16 0 13 -30 13 -50
0z"></path>
<path d="M2980 2500 c0 -5 7 -10 15 -10 8 0 15 5 15 10 0 6 -7 10 -15 10 -8 0
-15 -4 -15 -10z"></path>
<path d="M3433 2503 c-116 -7 -64 -22 77 -22 78 1 140 5 140 10 0 5 -12 9 -27
9 -16 0 -50 2 -78 4 -27 2 -78 1 -112 -1z"></path>
<path d="M3745 2501 c-3 -5 -2 -12 3 -15 12 -7 52 4 52 15 0 12 -47 12 -55 0z"></path>
<path d="M3820 2501 c0 -12 165 -18 333 -13 222 7 157 22 -98 22 -129 0 -235
-4 -235 -9z"></path>
<path d="M4400 2499 c0 -8 115 -19 203 -19 44 0 67 4 65 11 -4 11 -268 20
-268 8z"></path>
<path d="M4743 2502 c-18 -2 -33 -8 -33 -14 0 -7 50 -9 158 -5 86 4 158 6 160
7 1 0 2 4 2 9 0 8 -213 10 -287 3z"></path>
<path d="M5080 2500 c0 -13 45 -24 66 -16 8 3 12 10 9 16 -8 13 -75 13 -75 0z"></path>
<path d="M5170 2500 c0 -5 18 -10 40 -10 22 0 40 5 40 10 0 6 -18 10 -40 10
-22 0 -40 -4 -40 -10z"></path>
<path d="M5290 2500 c0 -5 9 -10 20 -10 11 0 20 5 20 10 0 6 -9 10 -20 10 -11
0 -20 -4 -20 -10z"></path>
<path d="M5350 2500 c0 -5 5 -10 10 -10 6 0 10 5 10 10 0 6 -4 10 -10 10 -5 0
-10 -4 -10 -10z"></path>
<path d="M5650 2499 c0 -12 30 -19 86 -19 57 0 77 19 22 21 -18 1 -50 2 -70 3
-21 2 -38 -1 -38 -5z"></path>
<path d="M5820 2500 c0 -5 7 -10 15 -10 8 0 15 5 15 10 0 6 -7 10 -15 10 -8 0
-15 -4 -15 -10z"></path>
<path d="M5864 2501 c-2 -2 -1 -8 2 -12 10 -17 164 -7 164 10 0 6 -159 9 -166
2z"></path>
<path d="M6050 2502 c0 -18 29 -22 146 -22 69 0 114 4 114 10 0 6 -45 10 -114
10 -63 0 -121 3 -130 6 -9 3 -16 2 -16 -4z"></path>
<path d="M566 2492 c-3 -6 4 -23 17 -38 l24 -27 131 2 c114 2 132 0 132 -13 0
-14 54 -16 520 -16 340 0 520 3 520 10 0 6 28 10 65 10 51 0 65 3 65 15 0 16
-221 20 -1054 16 l-370 -2 -21 27 c-14 17 -24 23 -29 16z"></path>
<path d="M630 2490 c0 -6 42 -10 105 -10 63 0 105 4 105 10 0 6 -42 10 -105
10 -63 0 -105 -4 -105 -10z"></path>
<path d="M2798 2493 c7 -3 16 -2 19 1 4 3 -2 6 -13 5 -11 0 -14 -3 -6 -6z"></path>
<path d="M5430 2490 c0 -6 33 -10 80 -10 47 0 80 4 80 10 0 6 -33 10 -80 10
-47 0 -80 -4 -80 -10z"></path>
<path d="M6357 2470 c-14 -16 -29 -20 -87 -20 -56 0 -70 -3 -70 -15 0 -10 -11
-15 -35 -15 -24 0 -35 5 -35 15 0 8 -7 15 -15 15 -8 0 -15 -7 -15 -15 0 -10
-10 -15 -30 -15 -20 0 -30 5 -30 15 0 13 -174 15 -1500 17 -825 1 -1507 2
-1516 2 -11 1 -18 -8 -20 -26 -3 -29 19 -40 30 -15 5 10 7 10 12 0 7 -17 1844
-19 1844 -3 0 6 45 10 115 10 70 0 115 -4 115 -10 0 -5 7 -10 15 -10 8 0 15 5
15 10 0 6 7 10 15 10 8 0 15 -6 15 -12 0 -10 3 -9 9 1 7 11 9 11 14 0 4 -10 6
-10 6 -1 1 14 41 17 41 2 0 -7 185 -10 535 -10 l536 0 34 35 c33 33 44 55 27
55 -4 0 -15 -9 -25 -20z"></path>
<path d="M2150 2454 c0 -3 6 -12 14 -20 18 -18 26 -18 26 0 0 8 -7 17 -16 20
-19 7 -24 8 -24 0z"></path>
<path d="M2655 2450 c-4 -6 7 -10 24 -10 17 0 31 5 31 10 0 6 -11 10 -24 10
-14 0 -28 -4 -31 -10z"></path>
<path d="M2780 2450 c0 -5 9 -10 20 -10 11 0 20 5 20 10 0 6 -9 10 -20 10 -11
0 -20 -4 -20 -10z"></path>
<path d="M2860 2450 c0 -5 7 -10 15 -10 8 0 15 5 15 10 0 6 -7 10 -15 10 -8 0
-15 -4 -15 -10z"></path>
<path d="M2090 2410 c0 -5 9 -10 20 -10 11 0 20 5 20 10 0 6 -9 10 -20 10 -11
0 -20 -4 -20 -10z"></path>
<path d="M2200 2410 c0 -5 5 -10 10 -10 6 0 10 5 10 10 0 6 -4 10 -10 10 -5 0
-10 -4 -10 -10z"></path>
<path d="M2610 2410 c0 -5 5 -10 10 -10 6 0 10 5 10 10 0 6 -4 10 -10 10 -5 0
-10 -4 -10 -10z"></path>
<path d="M2920 2410 c0 -5 11 -10 25 -10 14 0 25 5 25 10 0 6 -11 10 -25 10
-14 0 -25 -4 -25 -10z"></path>
<path d="M640 2400 c0 -5 5 -10 10 -10 6 0 10 5 10 10 0 6 -4 10 -10 10 -5 0
-10 -4 -10 -10z"></path>
<path d="M656 2352 c-2 -4 23 -36 55 -71 55 -59 61 -62 77 -48 20 18 62 21
144 9 32 -4 64 -5 71 -1 18 10 177 11 249 1 32 -5 64 -5 71 -1 12 7 59 8 262
6 39 -1 113 0 165 1 94 2 185 -4 200 -13 4 -3 24 2 43 10 30 12 53 13 139 4
106 -11 228 -5 262 13 15 8 18 7 13 -4 -4 -13 23 -14 196 -11 111 2 209 3 217
2 8 -1 77 -2 153 -3 l138 -1 30 31 31 32 -29 6 c-26 5 -99 6 -278 6 -176 -1
-166 -2 -172 19 -7 27 -23 27 -23 1 0 -13 -7 -20 -20 -20 -10 0 -24 9 -30 20
-8 16 -21 20 -60 20 -61 0 -67 -18 -7 -22 23 -2 41 -7 39 -13 -3 -13 -116 -8
-120 5 -2 6 -40 10 -83 10 -51 0 -78 -4 -74 -10 3 -5 2 -10 -4 -10 -6 0 -15 9
-21 20 -9 17 -21 20 -70 20 -33 0 -60 -4 -60 -10 0 -5 23 -10 51 -10 36 0 49
-4 46 -12 -5 -16 -94 -13 -114 4 -11 9 -16 9 -22 -1 -6 -8 -35 -12 -92 -12
-46 0 -113 0 -149 0 -36 0 -112 0 -170 0 -58 0 -132 0 -165 0 -33 -1 -106 1
-163 3 -57 2 -105 1 -107 -2 -5 -9 -107 -7 -121 3 -14 8 -202 3 -211 -7 -10
-10 -101 -7 -108 4 -3 6 -33 10 -66 10 -40 0 -65 5 -75 15 -17 16 -30 19 -38
7z"></path>
<path d="M830 2350 c0 -6 28 -10 65 -10 37 0 65 4 65 10 0 6 -28 10 -65 10
-37 0 -65 -4 -65 -10z"></path>
<path d="M1140 2350 c0 -6 32 -10 75 -10 43 0 75 4 75 10 0 6 -32 10 -75 10
-43 0 -75 -4 -75 -10z"></path>
<path d="M1470 2350 c0 -6 28 -10 65 -10 37 0 65 4 65 10 0 6 -28 10 -65 10
-37 0 -65 -4 -65 -10z"></path>
<path d="M1810 2350 c0 -6 27 -10 60 -10 33 0 60 4 60 10 0 6 -27 10 -60 10
-33 0 -60 -4 -60 -10z"></path>
<path d="M2795 2350 c-4 -6 18 -10 59 -10 37 0 66 4 66 10 0 6 -26 10 -59 10
-33 0 -63 -4 -66 -10z"></path>
<path d="M3460 2350 c0 -5 14 -10 30 -10 17 0 30 5 30 10 0 6 -13 10 -30 10
-16 0 -30 -4 -30 -10z"></path>
<path d="M3790 2350 c0 -5 7 -10 15 -10 8 0 15 5 15 10 0 6 -7 10 -15 10 -8 0
-15 -4 -15 -10z"></path>
<path d="M3890 2351 c0 -5 7 -12 16 -15 22 -9 13 -16 -28 -23 -45 -7 -46 -10
-12 -42 l29 -29 113 7 c63 3 119 3 125 -2 7 -4 53 -4 102 -1 110 8 299 3 310
-8 3 -3 24 1 47 9 35 12 59 12 155 2 89 -10 121 -10 147 -1 30 11 52 11 253
-2 12 0 25 -4 28 -8 4 -4 17 -2 29 4 12 6 57 10 106 9 107 -4 191 -5 305 -4
418 3 540 0 559 -16 12 -10 26 -2 80 53 36 36 66 67 66 68 0 2 -65 4 -145 5
-83 1 -145 -2 -145 -7 0 -5 25 -10 55 -12 30 -2 56 -7 58 -12 1 -5 -23 -8 -53
-6 -30 1 -97 4 -148 7 -52 2 -101 1 -110 -3 -25 -10 -112 -12 -118 -3 -3 5
-41 9 -85 9 -58 0 -85 4 -95 15 -24 24 -125 20 -155 -6 -21 -18 -24 -19 -35
-4 -11 15 -46 17 -299 19 -230 3 -289 0 -300 -10 -19 -19 -65 -18 -65 1 0 8
-4 15 -10 15 -5 0 -10 -5 -10 -11 0 -8 -15 -10 -45 -6 -36 4 -47 1 -54 -12 -7
-13 -22 -16 -63 -16 -35 1 -52 6 -50 13 1 7 -5 12 -13 12 -8 0 -15 -4 -15 -10
0 -6 -33 -10 -79 -10 -70 0 -79 2 -84 20 -5 18 -14 20 -76 20 -60 0 -73 -3
-83 -20 -11 -17 -24 -20 -90 -20 -43 0 -77 3 -77 8 4 22 -3 32 -21 32 -11 0
-20 -4 -20 -9z m349 -20 c12 -8 10 -11 -10 -15 -40 -8 -102 -1 -107 12 -5 15
95 17 117 3z m643 -3 c-12 -15 -122 -12 -122 3 0 5 30 9 66 9 52 0 64 -3 56
-12z m313 2 c4 -6 -17 -10 -54 -10 -34 0 -61 4 -61 10 0 6 24 10 54 10 30 0
58 -4 61 -10z m322 -2 c-5 -17 -109 -17 -115 0 -3 9 14 12 58 12 45 0 61 -3
57 -12z"></path>
<path d="M5715 2350 c-4 -6 18 -10 60 -10 42 0 64 4 60 10 -3 6 -30 10 -60 10
-30 0 -57 -4 -60 -10z"></path>
<path d="M3078 2333 c12 -2 30 -2 40 0 9 3 -1 5 -23 4 -22 0 -30 -2 -17 -4z"></path>
<path d="M3264 2331 c7 -11 -17 -21 -48 -21 -30 0 -74 -46 -58 -62 11 -11 55
-12 217 -5 55 3 104 2 110 -1 16 -10 109 -10 122 0 14 11 189 15 199 5 10 -10
54 -9 54 1 0 4 -15 22 -33 40 -37 36 -95 61 -106 45 -4 -7 -24 -8 -56 -2 -67
11 -77 11 -70 -1 9 -15 -39 -23 -92 -15 -27 4 -84 7 -128 7 -53 0 -72 3 -55 8
21 7 18 8 -18 9 -24 1 -41 -3 -38 -8z"></path>
<path d="M4665 2230 c-3 -5 -1 -10 4 -10 6 0 11 5 11 10 0 6 -2 10 -4 10 -3 0
-8 -4 -11 -10z"></path>
<path d="M1410 2220 c0 -5 5 -10 11 -10 5 0 7 5 4 10 -3 6 -8 10 -11 10 -2 0
-4 -4 -4 -10z"></path>
<path d="M1050 2210 c0 -5 5 -10 11 -10 5 0 7 5 4 10 -3 6 -8 10 -11 10 -2 0
-4 -4 -4 -10z"></path>
<path d="M2700 2211 c0 -5 5 -13 10 -16 6 -3 10 -2 10 4 0 5 -4 13 -10 16 -5
3 -10 2 -10 -4z"></path>
<path d="M5893 2213 c-18 -7 -16 -23 2 -23 8 0 15 7 15 15 0 8 -1 15 -2 14 -2
0 -9 -3 -15 -6z"></path>
<path d="M2378 2203 c-10 -2 -18 -9 -18 -14 0 -13 13 -11 36 6 19 14 14 17
-18 8z"></path>
<path d="M3626 2203 c-11 -11 -6 -23 8 -23 8 0 17 4 20 9 7 10 -19 23 -28 14z"></path>
<path d="M4650 2199 c0 -5 5 -7 10 -4 6 3 10 8 10 11 0 2 -4 4 -10 4 -5 0 -10
-5 -10 -11z"></path>
<path d="M1080 2196 c0 -8 51 -13 56 -5 3 5 -9 9 -25 9 -17 0 -31 -2 -31 -4z"></path>
<path d="M3362 2184 c-18 -19 -15 -21 18 -16 17 2 30 8 30 12 0 14 -35 17 -48
4z"></path>
<path d="M790 2155 c0 -19 5 -35 10 -35 6 0 10 16 10 35 0 19 -4 35 -10 35 -5
0 -10 -16 -10 -35z"></path>
<path d="M2685 2180 c-4 -6 3 -10 14 -10 25 0 27 6 6 13 -8 4 -17 2 -20 -3z"></path>
<path d="M1715 2170 c-3 -5 1 -13 10 -16 22 -9 29 1 11 15 -10 8 -16 9 -21 1z"></path>
<path d="M2090 2164 c0 -8 5 -12 10 -9 6 3 10 10 10 16 0 5 -4 9 -10 9 -5 0
-10 -7 -10 -16z"></path>
<path d="M4000 2170 c0 -5 5 -10 10 -10 6 0 10 5 10 10 0 6 -4 10 -10 10 -5 0
-10 -4 -10 -10z"></path>
<path d="M5250 2170 c0 -5 16 -10 35 -10 19 0 35 5 35 10 0 6 -16 10 -35 10
-19 0 -35 -4 -35 -10z"></path>
<path d="M6160 2170 c0 -5 5 -10 10 -10 6 0 10 5 10 10 0 6 -4 10 -10 10 -5 0
-10 -4 -10 -10z"></path>
<path d="M2010 2150 c0 -5 5 -10 10 -10 6 0 10 5 10 10 0 6 -4 10 -10 10 -5 0
-10 -4 -10 -10z"></path>
<path d="M2045 2149 c-4 -6 -5 -13 -2 -16 7 -7 27 6 27 18 0 12 -17 12 -25 -2z"></path>
<path d="M3700 2150 c0 -5 5 -10 11 -10 5 0 7 5 4 10 -3 6 -8 10 -11 10 -2 0
-4 -4 -4 -10z"></path>
<path d="M1020 2140 c-8 -5 -12 -12 -9 -15 4 -3 12 1 19 10 14 17 11 19 -10 5z"></path>
<path d="M1368 2143 c7 -3 16 -2 19 1 4 3 -2 6 -13 5 -11 0 -14 -3 -6 -6z"></path>
<path d="M2685 2140 c-3 -5 -2 -10 4 -10 5 0 13 5 16 10 3 6 2 10 -4 10 -5 0
-13 -4 -16 -10z"></path>
<path d="M3070 2140 c0 -5 7 -10 16 -10 8 0 12 5 9 10 -3 6 -10 10 -16 10 -5
0 -9 -4 -9 -10z"></path>
<path d="M4102 2078 c5 -15 93 -28 111 -16 6 4 22 8 35 8 12 0 22 4 22 8 0 5
-39 10 -86 11 -65 1 -85 -2 -82 -11z"></path>
<path d="M4290 2080 c0 -5 16 -10 35 -10 19 0 35 5 35 10 0 6 -16 10 -35 10
-19 0 -35 -4 -35 -10z"></path>
<path d="M4390 2080 c0 -5 5 -10 10 -10 6 0 10 5 10 10 0 6 -4 10 -10 10 -5 0
-10 -4 -10 -10z"></path>
<path d="M4513 2083 c-29 -2 -53 -7 -53 -12 0 -4 81 -7 180 -7 99 1 180 4 180
7 0 16 -157 22 -307 12z"></path>
<path d="M4885 2080 c-3 -5 59 -10 137 -12 170 -4 387 4 373 14 -15 9 -504 8
-510 -2z"></path>
<path d="M5516 2081 c-6 -8 232 -22 247 -14 4 2 5 9 2 14 -8 12 -242 12 -249
0z"></path>
<path d="M5910 2080 c0 -5 7 -10 15 -10 8 0 15 5 15 10 0 6 -7 10 -15 10 -8 0
-15 -4 -15 -10z"></path>
<path d="M6070 2081 c0 -10 40 -19 58 -13 7 2 10 8 6 13 -7 12 -64 12 -64 0z"></path>
<path d="M780 2070 c0 -5 11 -10 25 -10 14 0 25 5 25 10 0 6 -11 10 -25 10
-14 0 -25 -4 -25 -10z"></path>
<path d="M908 2073 c-16 -3 -28 -7 -28 -11 0 -6 159 -7 483 -3 42 1 77 5 77
10 0 8 -477 12 -532 4z"></path>
<path d="M1858 2073 c-10 -2 -18 -8 -18 -13 0 -4 8 -7 18 -5 9 2 32 4 50 4 17
1 32 6 32 11 0 10 -49 12 -82 3z"></path>
<path d="M2160 2070 c-13 -8 -12 -10 3 -10 9 0 17 5 17 10 0 12 -1 12 -20 0z"></path>
<path d="M2485 2070 c-4 -6 8 -10 29 -10 20 0 36 5 36 10 0 6 -13 10 -29 10
-17 0 -33 -4 -36 -10z"></path>
<path d="M2581 2071 c-7 -5 -9 -11 -4 -14 5 -3 15 -2 22 2 7 5 9 11 4 14 -5 3
-15 2 -22 -2z"></path>
<path d="M3130 2070 c0 -5 3 -10 8 -11 4 0 23 -3 42 -5 46 -5 120 5 120 17 0
5 -38 9 -85 9 -50 0 -85 -4 -85 -10z"></path>
<path d="M3350 2070 c0 -5 30 -11 68 -12 37 -1 85 -3 107 -3 48 -2 75 4 75 16
0 5 -56 9 -125 9 -77 0 -125 -4 -125 -10z"></path>
<path d="M3833 2073 c-56 -7 -36 -23 22 -19 50 3 92 16 52 16 -8 0 -21 2 -29
3 -7 2 -28 2 -45 0z"></path>
<path d="M1590 2060 c0 -5 7 -7 15 -4 8 4 15 8 15 10 0 2 -7 4 -15 4 -8 0 -15
-4 -15 -10z"></path>
<path d="M2880 2060 c0 -5 6 -10 14 -10 8 0 18 5 21 10 3 6 -3 10 -14 10 -12
0 -21 -4 -21 -10z"></path>
<path d="M6180 2020 c0 -5 5 -10 10 -10 6 0 10 5 10 10 0 6 -4 10 -10 10 -5 0
-10 -4 -10 -10z"></path>
<path d="M777 2013 c-11 -10 -8 -63 3 -63 6 0 10 6 10 13 0 6 3 22 6 35 6 21
-5 30 -19 15z"></path>
<path d="M2780 1940 c0 -5 5 -10 10 -10 6 0 10 5 10 10 0 6 -4 10 -10 10 -5 0
-10 -4 -10 -10z"></path>
<path d="M2830 1940 c0 -5 5 -10 11 -10 5 0 7 5 4 10 -3 6 -8 10 -11 10 -2 0
-4 -4 -4 -10z"></path>
<path d="M5631 1943 c-246 -3 -287 -6 -303 -20 -14 -12 -30 -15 -73 -10 -31 3
-55 2 -55 -4 0 -5 8 -9 19 -9 10 0 24 -7 31 -15 13 -15 8 -19 -22 -16 -24 3
-23 -15 1 -22 16 -4 20 -22 31 -123 6 -66 15 -141 19 -169 l6 -50 69 -1 c61
-1 71 -4 77 -23 5 -11 17 -21 27 -21 39 0 49 -29 56 -160 10 -197 16 -266 33
-405 10 -71 17 -161 17 -200 1 -38 5 -76 9 -82 4 -7 8 -34 7 -60 -1 -27 3 -75
9 -108 6 -33 15 -123 21 -200 14 -190 21 -245 31 -245 13 0 11 52 -12 290 -12
118 -21 224 -21 235 -1 11 -9 110 -19 220 -25 267 -24 294 8 376 15 38 30 69
35 69 4 0 12 -9 18 -20 16 -30 39 -24 56 15 19 46 18 52 -5 24 -19 -23 -19
-24 -40 -5 -25 22 -27 42 -6 50 8 3 15 15 15 26 0 11 4 20 9 20 14 0 22 31 11
45 -7 9 -6 16 5 25 19 16 30 -8 21 -50 -3 -18 -1 -30 5 -30 6 0 9 32 9 83 -2
74 2 90 35 167 21 47 42 87 46 88 5 2 9 14 9 28 0 16 9 28 29 39 29 14 30 14
50 -21 19 -32 26 -89 61 -487 22 -249 49 -551 60 -672 41 -447 40 -438 63
-459 21 -17 22 -17 25 -1 2 10 -2 21 -8 25 -9 5 -11 19 -7 40 8 38 -10 228
-24 253 -5 10 -7 22 -3 28 8 13 -27 409 -37 409 -4 0 -5 18 -2 40 3 21 2 47
-2 57 -9 21 -15 88 -15 158 1 28 -4 93 -10 145 -6 52 -13 121 -15 153 -3 32
-7 62 -10 66 -2 5 -12 88 -20 185 -14 159 -14 179 0 206 9 17 22 30 31 30 11
0 13 6 9 19 -4 14 0 21 15 26 33 11 23 25 -19 25 -22 0 -44 -6 -51 -15 -21
-25 -34 -17 -16 10 19 29 20 36 4 33 -7 -2 -141 -4 -297 -5z m210 -47 c-6 -8
-43 -16 -87 -20 -42 -4 -87 -14 -99 -22 -15 -10 -25 -11 -29 -5 -4 6 -21 2
-44 -11 -158 -89 -166 -93 -224 -93 -31 0 -60 4 -64 8 -4 4 -9 31 -12 60 l-4
54 48 21 c46 20 66 21 288 22 200 0 237 -2 227 -14z m49 -146 c11 -21 6 -24
-32 -21 -10 1 -18 -3 -18 -8 0 -6 -7 -11 -16 -11 -11 0 -14 5 -10 16 3 9 6 19
6 24 0 5 10 11 23 13 12 2 25 5 29 6 4 0 12 -8 18 -19z"></path>
<path d="M6236 1934 c-11 -8 -31 -14 -45 -14 -19 0 -22 -3 -13 -12 18 -18 15
-28 -8 -28 -26 0 -26 -17 -1 -25 15 -4 31 5 61 35 41 41 45 73 6 44z"></path>
<path d="M710 1926 c0 -8 13 -25 28 -38 15 -13 31 -31 35 -40 5 -14 12 -15 39
-7 18 5 50 9 70 9 22 0 38 5 38 11 0 8 -21 10 -70 5 -48 -5 -70 -4 -70 4 0 6
7 13 15 16 27 11 16 24 -19 24 -21 0 -36 6 -40 15 -7 19 -26 20 -26 1z"></path>
<path d="M1850 1925 c0 -9 6 -12 15 -9 8 4 12 10 9 15 -8 14 -24 10 -24 -6z"></path>
<path d="M3033 1923 c-3 -8 -24 -13 -54 -13 -52 0 -66 -14 -24 -24 14 -4 25
-11 25 -16 0 -6 -32 -7 -79 -3 -136 10 -143 6 -337 -188 -93 -93 -173 -169
-179 -169 -5 0 77 87 183 193 105 106 192 195 192 199 0 14 -102 21 -395 25
-197 2 -317 0 -330 -6 -11 -6 -40 -12 -65 -14 -44 -3 -45 -3 -17 -15 47 -20
30 -27 -58 -23 -51 2 -85 -1 -85 -7 0 -5 38 -12 85 -14 47 -2 90 -9 96 -15 16
-16 25 -133 10 -133 -6 0 -11 -7 -11 -15 0 -8 7 -15 15 -15 8 0 15 -4 15 -10
0 -5 -4 -10 -10 -10 -6 0 -10 -35 -10 -85 0 -50 -4 -85 -10 -85 -5 0 -10 -13
-10 -30 0 -20 5 -30 15 -30 9 0 15 -9 15 -25 0 -14 -4 -25 -10 -25 -5 0 -10
-22 -10 -50 0 -27 -4 -50 -10 -50 -5 0 -10 -9 -10 -20 0 -11 7 -20 15 -20 9 0
15 -10 15 -26 0 -19 -4 -25 -15 -20 -12 4 -15 -3 -15 -30 l0 -35 28 20 c51 36
127 121 110 121 -9 0 -26 -13 -38 -30 -12 -16 -28 -30 -36 -30 -13 0 -14 15
-9 103 3 56 7 169 9 251 3 141 5 151 26 168 42 34 58 23 84 -58 20 -60 21
-103 10 -234 -5 -52 -7 -106 -6 -119 4 -22 6 -21 53 25 27 26 49 44 49 38 0
-5 -23 -32 -51 -59 -49 -49 -51 -51 -46 -98 3 -38 11 -55 35 -77 17 -15 34
-40 38 -55 8 -33 -3 -107 -18 -116 -7 -4 -35 12 -64 38 -64 54 -60 60 -69
-128 l-6 -126 77 -57 77 -58 -7 -247 c-3 -135 -9 -279 -12 -318 -5 -61 -4 -73
8 -73 13 0 17 26 22 143 10 215 25 698 31 1006 6 270 10 301 40 301 7 0 19 9
26 21 14 20 22 21 200 19 l186 -1 7 83 c18 231 21 250 41 264 22 16 150 19
188 5 37 -14 47 -54 44 -186 -1 -90 -5 -119 -14 -118 -16 4 -18 -144 -2 -149
13 -4 18 -739 5 -815 -7 -44 -6 -53 6 -53 11 0 17 15 22 50 4 28 4 55 1 60 -4
6 -1 65 6 132 9 92 9 123 1 126 -16 5 -16 136 1 163 7 14 8 23 2 25 -6 3 -9
64 -6 165 2 115 0 168 -9 184 -8 15 -10 36 -5 57 4 18 9 84 12 146 4 108 14
137 32 90 17 -46 21 -125 11 -203 -6 -45 -13 -394 -16 -797 -6 -711 -6 -718
14 -718 19 0 20 11 24 712 4 652 5 716 21 746 l18 32 375 0 376 0 29 -29 c27
-28 29 -34 29 -110 0 -47 4 -81 10 -81 6 0 10 34 10 83 0 46 4 87 10 93 5 5
13 57 16 114 7 110 15 134 44 125 16 -5 18 3 22 66 4 77 19 99 65 99 13 0 23
5 23 11 0 7 -11 9 -30 6 -36 -8 -39 4 -7 27 21 15 20 16 -30 14 -28 -1 -58 4
-66 10 -21 17 -958 22 -964 5z m-369 -33 c14 -5 26 -14 26 -19 0 -6 -28 -40
-62 -77 l-62 -66 -48 5 c-59 7 -123 35 -206 89 -50 33 -65 38 -77 28 -16 -13
-35 -6 -35 15 0 8 -8 19 -17 24 -24 14 446 15 481 1z m1271 -1 c4 -6 -1 -40
-11 -76 -16 -53 -24 -68 -49 -80 -16 -9 -41 -24 -54 -34 -13 -11 -32 -19 -42
-19 -11 0 -18 -6 -17 -12 2 -10 -38 -13 -177 -13 -144 0 -179 3 -177 13 1 9
-6 13 -20 11 -13 -1 -52 2 -88 6 -61 8 -67 11 -117 63 -57 58 -60 67 -41 119
l12 33 387 0 c265 0 390 -3 394 -11z m105 -33 c0 -2 -7 -9 -15 -16 -12 -10
-15 -10 -15 4 0 9 7 16 15 16 8 0 15 -2 15 -4z m-32 -118 c-4 -46 -28 -49 -28
-4 0 26 4 36 16 36 11 0 14 -8 12 -32z"></path>
<path d="M4354 1925 c-4 -11 -21 -15 -58 -16 -49 0 -50 -1 -28 -16 12 -8 22
-23 22 -32 0 -9 72 -88 160 -176 87 -87 157 -161 154 -164 -2 -3 -72 62 -154
144 -82 82 -152 147 -155 143 -7 -7 15 -302 24 -308 3 -3 71 -3 151 0 173 6
191 4 197 -21 3 -10 11 -19 18 -19 6 0 19 -8 28 -18 13 -15 17 -54 22 -237 2
-121 9 -296 15 -390 5 -93 14 -300 20 -460 12 -333 15 -355 37 -355 14 0 15
18 9 173 -4 94 -11 210 -16 257 -15 146 -16 245 -3 243 6 -2 27 15 46 37 19
22 41 40 50 40 9 0 19 5 22 10 3 6 -3 10 -14 10 -11 0 -25 9 -31 20 -6 11 -14
19 -18 19 -27 -4 -33 3 -27 29 4 22 2 29 -10 29 -12 0 -14 -8 -9 -36 4 -19 13
-42 21 -49 18 -19 16 -35 -9 -61 l-21 -24 -12 24 c-19 36 -29 293 -15 366 13
66 28 97 37 76 10 -25 30 -12 42 26 15 50 5 74 -53 131 -25 24 -46 49 -46 54
0 6 21 -10 47 -34 26 -25 42 -38 35 -29 -9 12 -9 18 0 27 7 7 15 36 19 64 9
69 40 182 51 186 4 2 8 23 8 46 0 23 5 47 11 53 7 7 6 12 -5 16 -20 8 -30 -12
-47 -88 -12 -53 -14 -56 -17 -27 -4 40 55 202 74 202 42 0 59 -35 29 -60 -16
-14 -21 -45 -5 -35 5 3 16 -8 25 -25 8 -16 19 -30 23 -30 4 0 6 33 4 73 -4 64
-1 80 22 126 21 40 33 53 56 58 52 10 32 22 -27 16 -77 -8 -111 -33 -60 -47
l22 -5 -22 -22 c-21 -21 -61 -20 -48 1 3 5 8 18 10 27 2 10 6 30 10 46 l7 27
-306 0 c-263 0 -307 -2 -312 -15z m569 -22 c15 -14 -18 -33 -58 -33 -37 0 -46
-5 -70 -36 -20 -26 -33 -34 -48 -30 -15 4 -35 -9 -74 -44 -60 -55 -114 -75
-173 -65 -30 5 -53 22 -109 80 -39 40 -71 77 -71 82 0 10 36 31 75 44 26 9
520 11 528 2z m-90 -670 c6 -31 -5 -49 -22 -39 -12 8 -15 49 -4 59 13 13 21 7
26 -20z"></path>
<path d="M1046 1914 c-5 -14 -15 -15 -61 -9 -58 7 -78 -8 -25 -18 37 -8 40
-27 4 -27 -14 0 -23 -4 -19 -10 3 -5 14 -10 24 -10 9 0 25 -6 34 -12 15 -12
16 -22 7 -93 -5 -44 -12 -114 -15 -155 -3 -41 -9 -122 -15 -180 -5 -58 -14
-161 -20 -230 -29 -350 -95 -1046 -106 -1127 l-6 -43 56 0 c52 0 56 2 56 24 0
17 50 73 190 212 105 104 190 196 190 204 0 8 -100 -85 -223 -208 -175 -175
-225 -220 -235 -210 -15 15 -16 45 -1 54 9 5 10 -1 5 -20 -3 -14 -3 -26 2 -26
14 0 104 97 94 101 -6 3 -7 41 -1 109 5 58 16 191 24 295 8 105 18 215 21 245
13 138 23 264 29 365 3 61 8 119 10 130 2 11 7 83 10 160 7 159 28 261 58 276
28 15 70 -28 96 -100 25 -65 25 -76 16 -231 -6 -93 -5 -126 9 -172 18 -64 36
-75 77 -51 28 17 30 17 48 -2 20 -21 24 -46 22 -173 -1 -57 -4 -70 -13 -62
-19 16 -241 140 -245 137 -2 -2 -8 -53 -13 -113 -6 -60 -12 -126 -14 -147 -4
-37 -3 -39 37 -56 23 -10 77 -35 120 -55 43 -20 80 -36 82 -36 1 0 7 12 11 28
6 20 10 2 14 -73 3 -55 3 -104 -1 -110 -3 -5 -14 -109 -23 -230 -9 -121 -19
-230 -22 -242 -3 -18 0 -23 16 -23 12 0 21 8 24 23 14 61 70 833 92 1272 7
128 17 155 59 155 14 0 25 8 28 20 4 17 15 20 93 22 l89 3 12 140 c7 77 17
157 22 177 5 23 5 40 -1 46 -13 13 -2 32 18 32 8 0 14 4 14 9 0 16 -107 23
-431 27 -287 4 -317 3 -323 -12z m573 -43 c26 -36 26 -48 3 -60 -27 -15 -70
-1 -108 34 -48 46 -44 55 25 55 54 0 61 -3 80 -29z m-579 -140 c0 -6 -4 -13
-10 -16 -5 -3 -10 1 -10 9 0 9 5 16 10 16 6 0 10 -4 10 -9z m-10 -95 c0 -8 -4
-18 -10 -21 -5 -3 -10 3 -10 14 0 12 5 21 10 21 6 0 10 -6 10 -14z m-10 -123
c0 -5 -5 -15 -10 -23 -8 -12 -10 -11 -10 8 0 12 5 22 10 22 6 0 10 -3 10 -7z
m-17 -133 c-3 -11 -7 -20 -9 -20 -2 0 -4 9 -4 20 0 11 4 20 9 20 5 0 7 -9 4
-20z m-9 -115 c-4 -8 -8 -15 -10 -15 -2 0 -4 7 -4 15 0 8 4 15 10 15 5 0 7 -7
4 -15z m-4 -109 c0 -14 -4 -28 -10 -31 -6 -4 -10 7 -10 24 0 17 5 31 10 31 6
0 10 -11 10 -24z m-10 -135 c0 -11 -4 -23 -10 -26 -6 -4 -10 5 -10 19 0 14 5
26 10 26 6 0 10 -9 10 -19z m-12 -126 c-1 -14 -6 -25 -10 -25 -4 0 -8 11 -8
25 0 14 4 25 10 25 5 0 9 -11 8 -25z m419 -97 c-2 -13 -4 -5 -4 17 -1 22 1 32
4 23 2 -10 2 -28 0 -40z m-427 -7 c0 -11 -4 -23 -10 -26 -6 -4 -10 5 -10 19 0
14 5 26 10 26 6 0 10 -9 10 -19z m-10 -110 c0 -11 -4 -23 -10 -26 -6 -4 -10 5
-10 19 0 14 5 26 10 26 6 0 10 -9 10 -19z m-10 -121 c0 -16 -4 -30 -10 -30 -5
0 -10 14 -10 30 0 17 5 30 10 30 6 0 10 -13 10 -30z m-10 -104 c0 -8 -4 -18
-10 -21 -5 -3 -10 3 -10 14 0 12 5 21 10 21 6 0 10 -6 10 -14z m-10 -105 c0
-11 -4 -23 -10 -26 -6 -4 -10 5 -10 19 0 14 5 26 10 26 6 0 10 -9 10 -19z
m-10 -90 c0 -11 -4 -23 -10 -26 -6 -4 -10 5 -10 19 0 14 5 26 10 26 6 0 10 -9
10 -19z m-11 -88 c0 -5 -4 -17 -9 -28 -8 -18 -9 -17 -9 8 -1 15 4 27 9 27 6 0
10 -3 9 -7z"></path>
<path d="M5130 1870 c0 -5 11 -10 25 -10 14 0 25 5 25 10 0 6 -11 10 -25 10
-14 0 -25 -4 -25 -10z"></path>
<path d="M6020 1870 c0 -5 7 -10 15 -10 8 0 15 5 15 10 0 6 -7 10 -15 10 -8 0
-15 -4 -15 -10z"></path>
<path d="M4230 1860 c0 -5 5 -10 10 -10 6 0 10 5 10 10 0 6 -4 10 -10 10 -5 0
-10 -4 -10 -10z"></path>
<path d="M790 1775 c0 -14 5 -25 10 -25 6 0 10 11 10 25 0 14 -4 25 -10 25 -5
0 -10 -11 -10 -25z"></path>
<path d="M1960 1735 c0 -19 5 -35 10 -35 6 0 10 16 10 35 0 19 -4 35 -10 35
-5 0 -10 -16 -10 -35z"></path>
<path d="M6185 1713 c7 -50 11 -60 21 -51 9 10 -7 98 -18 98 -7 0 -8 -18 -3
-47z"></path>
<path d="M970 1730 c0 -11 5 -20 10 -20 6 0 10 9 10 20 0 11 -4 20 -10 20 -5
0 -10 -9 -10 -20z"></path>
<path d="M777 1678 c-6 -48 -3 -68 7 -57 10 10 18 109 9 109 -6 0 -13 -23 -16
-52z"></path>
<path d="M920 1685 c0 -14 5 -25 10 -25 6 0 10 11 10 25 0 14 -4 25 -10 25 -5
0 -10 -11 -10 -25z"></path>
<path d="M4040 1611 c0 -46 3 -62 13 -58 8 2 11 20 9 53 -6 75 -22 79 -22 5z"></path>
<path d="M960 1625 c0 -19 5 -35 10 -35 6 0 10 16 10 35 0 19 -4 35 -10 35 -5
0 -10 -16 -10 -35z"></path>
<path d="M6200 1625 c0 -8 5 -15 10 -15 6 0 10 7 10 15 0 8 -4 15 -10 15 -5 0
-10 -7 -10 -15z"></path>
<path d="M5000 1531 c0 -54 4 -91 10 -91 9 0 12 30 14 147 1 14 -5 28 -11 31
-10 3 -13 -19 -13 -87z"></path>
<path d="M5820 1556 c0 -53 48 -468 55 -474 3 -3 7 -3 10 0 8 7 -49 518 -57
518 -5 0 -8 -20 -8 -44z"></path>
<path d="M760 1565 c0 -25 14 -34 24 -16 8 12 -3 41 -15 41 -5 0 -9 -11 -9
-25z"></path>
<path d="M910 1565 c0 -8 5 -15 10 -15 6 0 10 7 10 15 0 8 -4 15 -10 15 -5 0
-10 -7 -10 -15z"></path>
<path d="M6213 1509 c6 -49 12 -67 21 -58 8 9 -7 109 -17 109 -6 0 -7 -19 -4
-51z"></path>
<path d="M950 1525 c0 -14 5 -25 10 -25 6 0 10 11 10 25 0 14 -4 25 -10 25 -5
0 -10 -11 -10 -25z"></path>
<path d="M1950 1515 c0 -14 5 -25 10 -25 6 0 10 11 10 25 0 14 -4 25 -10 25
-5 0 -10 -11 -10 -25z"></path>
<path d="M1910 1520 c0 -5 5 -10 10 -10 6 0 10 5 10 10 0 6 -4 10 -10 10 -5 0
-10 -4 -10 -10z"></path>
<path d="M750 1495 c0 -25 14 -34 24 -16 8 12 -3 41 -15 41 -5 0 -9 -11 -9
-25z"></path>
<path d="M4040 1415 c0 -63 4 -105 10 -105 6 0 10 42 10 105 0 63 -4 105 -10
105 -6 0 -10 -42 -10 -105z"></path>
<path d="M4915 1368 c5 -84 9 -165 10 -180 2 -16 3 -44 4 -63 0 -19 6 -35 12
-35 7 0 9 27 5 83 -3 45 -8 142 -12 215 -4 76 -11 132 -17 132 -6 0 -7 -52 -2
-152z"></path>
<path d="M900 1480 c0 -5 5 -10 10 -10 6 0 10 5 10 10 0 6 -4 10 -10 10 -5 0
-10 -4 -10 -10z"></path>
<path d="M4290 1428 c0 -70 23 -238 33 -238 9 0 5 100 -10 228 -6 62 -23 69
-23 10z"></path>
<path d="M2730 1425 c0 -14 5 -25 10 -25 6 0 10 11 10 25 0 14 -4 25 -10 25
-5 0 -10 -11 -10 -25z"></path>
<path d="M740 1421 c0 -11 5 -23 10 -26 6 -4 10 5 10 19 0 14 -4 26 -10 26 -5
0 -10 -9 -10 -19z"></path>
<path d="M936 1363 c-3 -42 -6 -90 -5 -107 1 -28 2 -28 9 9 15 77 22 175 12
175 -5 0 -12 -34 -16 -77z"></path>
<path d="M3970 1370 c0 -33 4 -60 10 -60 6 0 10 27 10 60 0 33 -4 60 -10 60
-6 0 -10 -27 -10 -60z"></path>
<path d="M5270 1390 c0 -22 5 -40 10 -40 6 0 10 18 10 40 0 22 -4 40 -10 40
-5 0 -10 -18 -10 -40z"></path>
<path d="M1730 1370 c0 -16 5 -30 10 -30 6 0 10 14 10 30 0 17 -4 30 -10 30
-5 0 -10 -13 -10 -30z"></path>
<path d="M5011 1328 c2 -189 35 -703 44 -698 6 3 8 20 7 38 -2 18 2 39 8 47 8
9 8 15 2 15 -8 0 -18 112 -26 320 -1 14 3 28 9 32 7 5 6 14 -3 28 -8 13 -10
34 -6 55 3 19 3 43 -1 52 -11 25 -12 30 -13 111 -1 40 -6 72 -12 72 -6 0 -10
-30 -9 -72z"></path>
<path d="M6230 1375 c0 -14 5 -25 10 -25 6 0 10 11 10 25 0 14 -4 25 -10 25
-5 0 -10 -11 -10 -25z"></path>
<path d="M741 1371 c-9 -6 -11 -18 -6 -40 4 -21 3 -31 -5 -31 -6 0 -10 -12 -8
-27 2 -17 9 -28 18 -28 10 0 14 8 12 24 -2 13 1 27 6 30 5 3 7 22 3 43 -4 28
-9 35 -20 29z"></path>
<path d="M890 1370 c0 -5 5 -10 10 -10 6 0 10 5 10 10 0 6 -4 10 -10 10 -5 0
-10 -4 -10 -10z"></path>
<path d="M2720 1220 c0 -87 4 -140 10 -140 6 0 10 53 10 140 0 87 -4 140 -10
140 -6 0 -10 -53 -10 -140z"></path>
<path d="M1940 1320 c0 -11 5 -20 10 -20 6 0 10 9 10 20 0 11 -4 20 -10 20 -5
0 -10 -9 -10 -20z"></path>
<path d="M5280 1285 c0 -25 5 -45 10 -45 6 0 10 20 10 45 0 25 -4 45 -10 45
-5 0 -10 -20 -10 -45z"></path>
<path d="M1716 1198 c-3 -57 -9 -124 -12 -150 -4 -30 -3 -48 3 -48 12 0 33
151 33 238 0 100 -16 71 -24 -40z"></path>
<path d="M880 1265 c0 -14 5 -25 10 -25 6 0 10 11 10 25 0 14 -4 25 -10 25 -5
0 -10 -11 -10 -25z"></path>
<path d="M6246 1253 c7 -42 11 -49 20 -40 10 9 -5 77 -17 77 -6 0 -7 -15 -3
-37z"></path>
<path d="M4040 1260 c0 -11 5 -20 10 -20 6 0 10 9 10 20 0 11 -4 20 -10 20 -5
0 -10 -9 -10 -20z"></path>
<path d="M830 1260 c0 -5 5 -10 10 -10 6 0 10 5 10 10 0 6 -4 10 -10 10 -5 0
-10 -4 -10 -10z"></path>
<path d="M5670 1245 c0 -10 7 -15 18 -13 21 4 19 22 -2 26 -10 2 -16 -3 -16
-13z"></path>
<path d="M3930 1167 c0 -86 5 -117 20 -117 14 0 7 193 -7 197 -10 4 -13 -17
-13 -80z"></path>
<path d="M710 1205 c0 -14 5 -25 10 -25 6 0 10 11 10 25 0 14 -4 25 -10 25 -5
0 -10 -11 -10 -25z"></path>
<path d="M2035 1149 c-61 -64 -75 -83 -64 -91 11 -7 11 -11 2 -15 -19 -7 -16
-53 2 -53 10 0 15 -10 15 -30 0 -16 -4 -30 -10 -30 -5 0 -10 -20 -10 -45 0
-25 -4 -45 -10 -45 -5 0 -10 -18 -10 -40 0 -29 4 -40 15 -40 10 0 15 -10 15
-30 0 -19 -5 -30 -14 -30 -11 0 -13 -11 -10 -45 3 -27 0 -45 -6 -45 -5 0 -10
-16 -10 -35 0 -24 5 -35 15 -35 9 0 15 -10 15 -26 0 -18 -4 -25 -14 -21 -10 4
-15 -7 -20 -40 -10 -72 -8 -93 9 -93 10 0 15 -11 15 -35 0 -19 -4 -35 -10 -35
-5 0 -10 -11 -10 -25 0 -14 -4 -25 -10 -25 -5 0 -10 -13 -10 -30 0 -20 5 -30
15 -30 11 0 15 -9 13 -31 -3 -37 -17 -50 -19 -17 -2 26 -17 -62 -18 -104 -1
-23 3 -28 24 -28 30 0 32 10 40 235 3 94 12 280 19 415 8 135 14 287 15 339 2
104 14 137 61 171 29 21 56 58 47 66 -2 2 -39 -32 -82 -77z"></path>
<path d="M920 1195 c0 -14 5 -25 10 -25 6 0 10 11 10 25 0 14 -4 25 -10 25 -5
0 -10 -11 -10 -25z"></path>
<path d="M5292 1173 c3 -27 13 -146 23 -265 11 -120 23 -218 28 -218 10 0 4
113 -18 345 -8 83 -15 158 -15 168 0 9 -5 17 -11 17 -7 0 -9 -17 -7 -47z"></path>
<path d="M870 1170 c0 -11 5 -20 10 -20 6 0 10 9 10 20 0 11 -4 20 -10 20 -5
0 -10 -9 -10 -20z"></path>
<path d="M6264 1108 c6 -71 11 -86 21 -76 9 9 -8 148 -18 148 -6 0 -7 -26 -3
-72z"></path>
<path d="M4040 1115 c0 -30 5 -55 10 -55 6 0 10 25 10 55 0 30 -4 55 -10 55
-5 0 -10 -25 -10 -55z"></path>
<path d="M691 1060 c-13 -121 -13 -130 -2 -130 4 0 14 46 22 103 10 70 18 101
27 100 6 -2 12 2 12 7 0 6 -4 10 -9 10 -5 0 -16 2 -24 6 -11 4 -16 -15 -26
-96z"></path>
<path d="M1930 1120 c0 -22 5 -40 10 -40 6 0 10 18 10 40 0 22 -4 40 -10 40
-5 0 -10 -18 -10 -40z"></path>
<path d="M3978 1089 c-2 -46 -9 -73 -18 -79 -11 -7 -15 -53 -17 -229 -2 -147
0 -221 7 -221 6 0 10 28 10 68 0 41 6 79 15 96 9 16 13 36 10 44 -3 8 0 20 5
28 14 15 9 90 -5 87 -5 -1 -11 9 -11 22 -1 14 3 23 8 22 7 -1 12 42 14 116 4
125 -11 165 -18 46z"></path>
<path d="M916 1134 c-9 -25 -7 -64 4 -64 6 0 10 18 10 40 0 43 -4 50 -14 24z"></path>
<path d="M4311 1124 c0 -11 3 -14 6 -6 3 7 2 16 -1 19 -3 4 -6 -2 -5 -13z"></path>
<path d="M4316 1046 c-3 -30 -4 -60 -2 -68 6 -18 17 -218 23 -423 8 -296 8
-300 -8 -297 -9 1 -7 -4 6 -15 18 -16 20 -30 19 -126 -1 -84 2 -110 13 -114 8
-3 15 -4 17 -2 3 3 -2 111 -15 369 -9 183 -29 646 -29 683 0 64 -16 60 -24 -7z"></path>
<path d="M5815 1074 c-11 -8 -62 -38 -112 -66 -51 -28 -93 -56 -93 -60 0 -5 7
-16 15 -24 13 -14 15 -13 16 3 0 16 1 16 8 -2 7 -16 9 -14 14 13 4 18 14 35
24 38 33 11 78 33 108 53 22 15 32 17 42 9 18 -15 22 -8 16 25 -6 31 -10 32
-38 11z"></path>
<path d="M4886 1036 c-24 -19 -36 -37 -32 -44 10 -17 36 -15 36 2 0 7 10 20
21 28 12 7 20 21 18 31 -3 14 -11 11 -43 -17z"></path>
<path d="M4055 1037 c-4 -10 -5 -21 -1 -24 10 -10 18 4 13 24 -4 17 -4 17 -12
0z"></path>
<path d="M5880 1005 c0 -19 5 -35 10 -35 6 0 10 16 10 35 0 19 -4 35 -10 35
-5 0 -10 -16 -10 -35z"></path>
<path d="M850 985 c0 -14 5 -25 10 -25 6 0 10 11 10 25 0 14 -4 25 -10 25 -5
0 -10 -11 -10 -25z"></path>
<path d="M900 985 c0 -14 5 -25 10 -25 6 0 10 11 10 25 0 14 -4 25 -10 25 -5
0 -10 -11 -10 -25z"></path>
<path d="M2707 798 c-4 -117 -10 -293 -13 -390 -5 -117 -4 -178 3 -178 6 0 13
72 17 182 17 494 19 598 9 598 -6 0 -12 -82 -16 -212z"></path>
<path d="M6277 953 c-2 -32 -1 -63 3 -68 11 -13 40 -242 34 -259 -3 -8 -1 -17
5 -21 6 -3 11 -28 11 -54 0 -26 4 -72 10 -102 5 -30 14 -92 19 -139 5 -47 16
-130 25 -184 9 -55 14 -106 12 -113 -3 -7 1 -13 9 -13 8 0 15 6 15 14 0 8 -20
173 -46 367 -25 195 -52 416 -61 492 -9 75 -20 137 -24 137 -3 0 -9 -26 -12
-57z"></path>
<path d="M800 990 c0 -5 5 -10 10 -10 6 0 10 5 10 10 0 6 -4 10 -10 10 -5 0
-10 -4 -10 -10z"></path>
<path d="M1880 985 c0 -8 5 -15 10 -15 6 0 10 7 10 15 0 8 -4 15 -10 15 -5 0
-10 -7 -10 -15z"></path>
<path d="M4930 990 c-9 -6 -10 -10 -3 -10 7 0 13 -20 15 -52 2 -33 8 -53 17
-56 11 -4 12 2 6 24 -4 16 -11 46 -14 66 -5 30 -9 36 -21 28z"></path>
<path d="M4806 962 c-24 -26 -26 -32 -14 -51 15 -25 30 -28 21 -5 -4 10 2 23
14 33 14 10 19 22 14 34 -6 16 -10 15 -35 -11z"></path>
<path d="M5823 969 c3 -12 0 -22 -9 -26 -8 -3 -14 -10 -14 -15 0 -6 7 -8 15
-4 8 3 21 -1 29 -10 23 -22 29 1 10 41 -18 38 -40 48 -31 14z"></path>
<path d="M1690 930 c0 -27 5 -50 10 -50 6 0 10 23 10 50 0 28 -4 50 -10 50 -5
0 -10 -22 -10 -50z"></path>
<path d="M4050 920 c0 -33 4 -60 10 -60 6 0 10 27 10 60 0 33 -4 60 -10 60 -6
0 -10 -27 -10 -60z"></path>
<path d="M1920 925 c0 -25 5 -45 10 -45 6 0 10 20 10 45 0 25 -4 45 -10 45 -5
0 -10 -20 -10 -45z"></path>
<path d="M5740 954 c0 -8 5 -12 10 -9 6 4 8 11 5 16 -9 14 -15 11 -15 -7z"></path>
<path d="M5890 925 c0 -14 5 -25 10 -25 6 0 10 11 10 25 0 14 -4 25 -10 25 -5
0 -10 -11 -10 -25z"></path>
<path d="M4901 914 c0 -11 3 -14 6 -6 3 7 2 16 -1 19 -3 4 -6 -2 -5 -13z"></path>
<path d="M5735 914 c-11 -8 -30 -13 -42 -11 -16 3 -23 -1 -23 -11 0 -9 -7 -13
-19 -9 -14 3 -20 -1 -23 -17 -5 -28 2 -57 12 -51 4 3 6 14 3 26 -5 17 -2 20
13 17 15 -3 18 -11 16 -43 -2 -38 -2 -39 13 -21 18 24 19 38 3 54 -15 15 9 47
26 33 15 -12 49 13 44 33 -3 13 -5 13 -23 0z"></path>
<path d="M6041 904 c0 -11 3 -14 6 -6 3 7 2 16 -1 19 -3 4 -6 -2 -5 -13z"></path>
<path d="M661 813 c-6 -54 -32 -257 -57 -452 -40 -313 -45 -376 -30 -360 6 6
34 182 41 259 4 36 22 190 41 342 37 304 38 308 26 308 -5 0 -14 -44 -21 -97z"></path>
<path d="M890 880 c0 -11 5 -20 10 -20 6 0 10 9 10 20 0 11 -4 20 -10 20 -5 0
-10 -9 -10 -20z"></path>
<path d="M4922 860 c1 -49 11 -85 26 -87 8 -2 12 9 12 32 0 19 -4 35 -9 35 -5
0 -14 12 -19 28 -10 27 -10 27 -10 -8z"></path>
<path d="M840 870 c0 -5 5 -10 10 -10 6 0 10 5 10 10 0 6 -4 10 -10 10 -5 0
-10 -4 -10 -10z"></path>
<path d="M5830 871 c0 -5 7 -14 15 -21 34 -28 8 -50 -62 -50 -36 0 -46 24 -18
44 13 9 11 11 -9 11 -23 0 -24 -3 -20 -49 3 -33 1 -52 -8 -57 -7 -4 -10 -10
-8 -12 3 -3 39 11 80 32 77 37 88 52 68 94 -9 17 -38 24 -38 8z"></path>
<path d="M1680 840 c0 -11 5 -20 10 -20 6 0 10 9 10 20 0 11 -4 20 -10 20 -5
0 -10 -9 -10 -20z"></path>
<path d="M5904 759 c4 -50 9 -104 13 -120 8 -44 27 -36 20 9 -4 20 -9 74 -13
120 -4 45 -11 82 -17 82 -6 0 -7 -32 -3 -91z"></path>
<path d="M1870 820 c0 -11 5 -20 10 -20 6 0 10 9 10 20 0 11 -4 20 -10 20 -5
0 -10 -9 -10 -20z"></path>
<path d="M6051 814 c0 -11 3 -14 6 -6 3 7 2 16 -1 19 -3 4 -6 -2 -5 -13z"></path>
<path d="M880 770 c0 -16 5 -30 10 -30 6 0 10 14 10 30 0 17 -4 30 -10 30 -5
0 -10 -13 -10 -30z"></path>
<path d="M1680 780 c0 -11 5 -20 10 -20 6 0 10 9 10 20 0 11 -4 20 -10 20 -5
0 -10 -9 -10 -20z"></path>
<path d="M830 770 c0 -11 5 -20 10 -20 6 0 10 9 10 20 0 11 -4 20 -10 20 -5 0
-10 -9 -10 -20z"></path>
<path d="M5640 780 c-8 -5 -11 -12 -7 -16 4 -4 13 -2 19 4 15 15 7 24 -12 12z"></path>
<path d="M5695 769 c-11 -17 1 -21 15 -4 8 9 8 15 2 15 -6 0 -14 -5 -17 -11z"></path>
<path d="M1910 725 c0 -19 5 -35 10 -35 6 0 10 16 10 35 0 19 -4 35 -10 35 -5
0 -10 -16 -10 -35z"></path>
<path d="M4960 690 c0 -33 4 -60 10 -60 6 0 10 27 10 60 0 33 -4 60 -10 60 -6
0 -10 -27 -10 -60z"></path>
<path d="M2910 730 c0 -5 5 -10 10 -10 6 0 10 5 10 10 0 6 -4 10 -10 10 -5 0
-10 -4 -10 -10z"></path>
<path d="M5640 727 c0 -8 3 -16 6 -20 9 -8 54 14 48 24 -8 14 -54 10 -54 -4z"></path>
<path d="M876 708 c-9 -36 -7 -78 4 -78 6 0 10 23 10 50 0 54 -4 63 -14 28z"></path>
<path d="M1670 695 c0 -19 -9 -181 -21 -361 -18 -295 -19 -347 -4 -333 2 3 9
81 15 174 5 94 14 238 20 320 12 191 12 235 0 235 -5 0 -10 -16 -10 -35z"></path>
<path d="M3990 645 c0 -30 5 -55 10 -55 6 0 10 25 10 55 0 30 -4 55 -10 55 -5
0 -10 -25 -10 -55z"></path>
<path d="M4050 601 c0 -87 12 -162 24 -150 8 8 -7 249 -15 249 -5 0 -9 -45 -9
-99z"></path>
<path d="M820 670 c0 -11 5 -20 10 -20 6 0 10 9 10 20 0 11 -4 20 -10 20 -5 0
-10 -9 -10 -20z"></path>
<path d="M1860 670 c0 -5 5 -10 10 -10 6 0 10 5 10 10 0 6 -4 10 -10 10 -5 0
-10 -4 -10 -10z"></path>
<path d="M5340 620 c0 -16 5 -30 10 -30 6 0 10 14 10 30 0 17 -4 30 -10 30 -5
0 -10 -13 -10 -30z"></path>
<path d="M5833 603 c-46 -16 -51 -28 -29 -58 12 -17 17 -18 41 -7 14 7 30 10
34 8 4 -3 14 -77 21 -166 11 -139 20 -183 35 -168 4 4 -33 378 -40 396 -5 15
-9 14 -62 -5z"></path>
<path d="M5050 568 c0 -53 31 -562 35 -566 1 -1 10 0 19 4 19 7 21 30 4 38 -9
3 -8 8 5 16 9 6 17 17 17 25 0 8 -8 19 -17 24 -17 10 -17 12 1 26 11 8 14 15
8 15 -7 0 -12 9 -12 20 0 11 -4 20 -10 20 -5 0 -10 14 -10 30 0 20 5 30 15 30
8 0 15 7 15 15 0 8 -4 15 -8 15 -20 0 -40 129 -41 273 -1 31 -5 57 -11 57 -5
0 -10 -19 -10 -42z"></path>
<path d="M810 580 c0 -11 5 -20 10 -20 6 0 10 9 10 20 0 11 -4 20 -10 20 -5 0
-10 -9 -10 -20z"></path>
<path d="M4923 588 c-24 -12 -29 -33 -13 -58 15 -23 44 1 48 39 3 33 -1 36
-35 19z"></path>
<path d="M860 565 c0 -14 5 -25 10 -25 6 0 10 11 10 25 0 14 -4 25 -10 25 -5
0 -10 -11 -10 -25z"></path>
<path d="M3973 549 c-21 -31 -21 -32 -2 -63 17 -27 19 -51 19 -191 0 -190 9
-295 24 -295 17 0 9 401 -10 469 -8 29 -12 66 -9 82 8 36 5 36 -22 -2z"></path>
<path d="M5705 557 c-47 -15 -56 -26 -44 -49 8 -14 19 -18 42 -16 31 3 32 2
38 -51 7 -50 29 -85 38 -60 2 6 -2 15 -9 19 -9 6 -11 21 -6 54 5 30 4 46 -3
46 -6 0 -11 13 -11 29 0 37 -7 41 -45 28z"></path>
<path d="M1900 525 c0 -19 5 -35 10 -35 6 0 10 16 10 35 0 19 -4 35 -10 35 -5
0 -10 -16 -10 -35z"></path>
<path d="M5355 448 c5 -62 10 -156 12 -208 3 -111 11 -210 18 -227 7 -20 24
-15 20 5 -2 9 -12 135 -21 280 -10 147 -22 262 -27 262 -6 0 -7 -42 -2 -112z"></path>
<path d="M5930 530 c0 -16 5 -30 10 -30 6 0 10 14 10 30 0 17 -4 30 -10 30 -5
0 -10 -13 -10 -30z"></path>
<path d="M4833 537 c-26 -12 -29 -25 -9 -52 12 -16 16 -17 30 -6 16 14 22 56
9 64 -5 3 -18 0 -30 -6z"></path>
<path d="M4967 507 c-5 -14 5 -252 19 -425 5 -60 10 -82 20 -82 18 0 18 5 -1
281 -14 207 -24 263 -38 226z"></path>
<path d="M851 448 c0 -45 3 -57 9 -43 12 28 12 105 0 105 -6 0 -10 -27 -9 -62z"></path>
<path d="M2991 482 c-7 -19 -8 -96 -2 -257 4 -126 9 -207 9 -178 1 28 7 55 12
58 13 8 14 392 1 399 -5 3 -14 -7 -20 -22z"></path>
<path d="M6087 503 c-12 -12 -7 -22 8 -17 8 4 15 10 15 15 0 11 -14 12 -23 2z"></path>
<path d="M6180 500 c0 -5 5 -10 10 -10 6 0 10 5 10 10 0 6 -4 10 -10 10 -5 0
-10 -4 -10 -10z"></path>
<path d="M800 480 c0 -11 5 -20 10 -20 6 0 10 9 10 20 0 11 -4 20 -10 20 -5 0
-10 -9 -10 -20z"></path>
<path d="M1168 335 c-87 -89 -158 -169 -158 -176 0 -8 77 63 170 156 94 93
170 173 170 177 0 24 -41 -11 -182 -157z"></path>
<path d="M5824 413 c4 -49 10 -96 12 -105 9 -29 26 -20 20 10 -2 15 -8 62 -11
105 -4 42 -11 77 -17 77 -7 0 -8 -30 -4 -87z"></path>
<path d="M6130 489 c0 -5 5 -7 10 -4 6 3 10 8 10 11 0 2 -4 4 -10 4 -5 0 -10
-5 -10 -11z"></path>
<path d="M4923 423 c4 -38 7 -98 7 -135 0 -39 4 -68 10 -68 11 0 13 101 3 203
-3 37 -10 67 -16 67 -6 0 -8 -25 -4 -67z"></path>
<path d="M4870 454 c0 -11 -6 -14 -21 -9 -20 7 -21 5 -15 -67 3 -40 8 -122 11
-183 9 -179 13 -195 43 -195 l25 0 -7 133 c-13 261 -19 337 -27 337 -5 0 -9
-7 -9 -16z"></path>
<path d="M1850 450 c0 -5 5 -10 10 -10 6 0 10 5 10 10 0 6 -4 10 -10 10 -5 0
-10 -4 -10 -10z"></path>
<path d="M5940 430 c0 -16 5 -30 10 -30 6 0 10 14 10 30 0 17 -4 30 -10 30 -5
0 -10 -13 -10 -30z"></path>
<path d="M3940 365 c0 -50 4 -85 10 -85 6 0 10 35 10 85 0 50 -4 85 -10 85 -6
0 -10 -35 -10 -85z"></path>
<path d="M4060 280 c0 -87 4 -140 10 -140 6 0 10 53 10 140 0 87 -4 140 -10
140 -6 0 -10 -53 -10 -140z"></path>
<path d="M5684 369 c3 -30 10 -110 16 -179 14 -163 19 -190 31 -190 6 0 8 12
5 27 -2 16 -10 98 -16 183 -6 85 -12 166 -13 179 -1 14 -8 26 -15 29 -11 3
-13 -7 -8 -49z"></path>
<path d="M790 375 c0 -8 5 -15 10 -15 6 0 10 7 10 15 0 8 -4 15 -10 15 -5 0
-10 -7 -10 -15z"></path>
<path d="M836 303 c-4 -43 -9 -97 -13 -120 -3 -25 -1 -43 4 -43 6 0 13 33 16
73 4 39 9 93 13 120 4 29 3 47 -3 47 -6 0 -14 -35 -17 -77z"></path>
<path d="M5950 335 c0 -14 5 -25 10 -25 6 0 10 11 10 25 0 14 -4 25 -10 25 -5
0 -10 -11 -10 -25z"></path>
<path d="M1890 320 c0 -16 5 -30 10 -30 6 0 10 14 10 30 0 17 -4 30 -10 30 -5
0 -10 -13 -10 -30z"></path>
<path d="M5754 303 c3 -27 8 -84 11 -128 9 -124 16 -175 25 -175 4 0 7 38 6
85 0 47 -5 85 -10 85 -5 0 -6 27 -3 60 3 33 1 60 -4 60 -5 0 -9 14 -9 30 0 17
-5 30 -11 30 -7 0 -9 -16 -5 -47z"></path>
<path d="M5306 321 c-4 -7 -5 -15 -2 -18 9 -9 19 4 14 18 -4 11 -6 11 -12 0z"></path>
<path d="M780 300 c0 -11 5 -20 10 -20 6 0 10 9 10 20 0 11 -4 20 -10 20 -5 0
-10 -9 -10 -20z"></path>
<path d="M1840 295 c0 -8 5 -15 10 -15 6 0 10 7 10 15 0 8 -4 15 -10 15 -5 0
-10 -7 -10 -15z"></path>
<path d="M5844 214 c3 -27 9 -86 13 -131 3 -46 10 -83 16 -83 6 0 7 33 2 92
-5 51 -9 108 -9 127 -1 20 -7 36 -15 39 -11 4 -13 -5 -7 -44z"></path>
<path d="M5960 216 c0 -25 5 -48 10 -51 6 -4 10 13 10 44 0 28 -4 51 -10 51
-5 0 -10 -20 -10 -44z"></path>
<path d="M4160 240 c0 -5 7 -10 15 -10 8 0 15 5 15 10 0 6 -7 10 -15 10 -8 0
-15 -4 -15 -10z"></path>
<path d="M770 195 c0 -8 5 -15 10 -15 6 0 10 7 10 15 0 8 -4 15 -10 15 -5 0
-10 -7 -10 -15z"></path>
<path d="M4943 104 c5 -89 10 -114 21 -103 9 9 -7 199 -17 199 -6 0 -8 -35 -4
-96z"></path>
<path d="M1880 155 c0 -19 5 -35 10 -35 6 0 10 16 10 35 0 19 -4 35 -10 35 -5
0 -10 -16 -10 -35z"></path>
<path d="M2680 90 c0 -53 4 -90 10 -90 6 0 10 37 10 90 0 53 -4 90 -10 90 -6
0 -10 -37 -10 -90z"></path>
<path d="M5925 103 c8 -91 11 -103 25 -103 7 0 9 23 5 67 -8 90 -13 113 -26
113 -6 0 -8 -27 -4 -77z"></path>
<path d="M760 110 c0 -16 5 -30 10 -30 6 0 10 14 10 30 0 17 -4 30 -10 30 -5
0 -10 -13 -10 -30z"></path>
<path d="M1830 105 c0 -19 5 -35 10 -35 6 0 10 16 10 35 0 19 -4 35 -10 35 -5
0 -10 -16 -10 -35z"></path>
<path d="M5970 115 c0 -8 5 -15 10 -15 6 0 10 7 10 15 0 8 -4 15 -10 15 -5 0
-10 -7 -10 -15z"></path>
<path d="M6130 120 c0 -5 5 -10 10 -10 6 0 10 5 10 10 0 6 -4 10 -10 10 -5 0
-10 -4 -10 -10z"></path>
<path d="M810 70 c0 -16 5 -30 10 -30 6 0 10 14 10 30 0 17 -4 30 -10 30 -5 0
-10 -13 -10 -30z"></path>
<path d="M5980 45 c0 -14 5 -25 10 -25 6 0 10 11 10 25 0 14 -4 25 -10 25 -5
0 -10 -11 -10 -25z"></path>
<path d="M750 20 c0 -11 5 -20 10 -20 6 0 10 9 10 20 0 11 -4 20 -10 20 -5 0
-10 -9 -10 -20z"></path>
<path d="M1870 20 c0 -11 5 -20 10 -20 6 0 10 9 10 20 0 11 -4 20 -10 20 -5 0
-10 -9 -10 -20z"></path>
<path d="M6070 21 c0 -12 6 -21 15 -21 8 0 15 4 15 9 0 5 -7 14 -15 21 -13 10
-15 9 -15 -9z"></path>
<path d="M2940 15 c0 -8 5 -15 10 -15 6 0 10 7 10 15 0 8 -4 15 -10 15 -5 0
-10 -7 -10 -15z"></path>
<path d="M5670 10 c0 -5 5 -10 10 -10 6 0 10 5 10 10 0 6 -4 10 -10 10 -5 0
-10 -4 -10 -10z"></path>
</g>
</svg>